<svg xmlns="http://www.w3.org/2000/svg"  viewBox="0 0 128 128" width="256px" height="256px"><path fill="#995076" d="M82.7,114.3c11.5-11,12.9-29.3,3.1-41.9c-2.4-3-5.1-5.5-8.2-7.5c-1.1-0.7-2.1-1.5-2.9-2.5c-0.8-1-1.5-2.1-2-3.3c-1.3-3.4-3.3-6.5-5.9-9.4C56.2,37.9,38,36,25.1,45.4C10.1,56.2,7.6,73.2,13.2,96.2c1.5,6.2,2.5,15.2,2.5,15.4l0,0l0,0c0,0,0,0,0,0c0,0,0,0,0,0l0,0l0,0c0.2,0.1,8.9,2.6,14.7,5.2C52.2,126.5,69.4,127,82.7,114.3z"/><path fill="#72324D" d="M82.7,114.3c4.2-4,7-8.9,8.4-14.2c0.8-3.1,0-7.5-1.5-12.3c-1.6-5.1-8.8-5.1-10.5,0c0,0.1,0,0.1-0.1,0.2c-0.8,2.5-2,4.9-3.5,7.1c-0.7,1.1-2.3,1.2-3.2,0.1l-2.3-2.8c-1-1.2-2.9-1.6-4.2-0.6c-1.4,1-1.6,3-0.5,4.3l3.1,3.7c0.8,0.9,0.5,2.3-0.5,3c0,0,0,0,0,0c-0.8,0.5-1.9,0.3-2.5-0.4L49.6,83.6c-1-1.2-2.9-1.6-4.2-0.6c-1.4,1-1.6,3-0.5,4.3l11.8,14.1c1.3,1.5-0.2,3.7-2.1,3.2c-3-0.9-5.8-2.7-8-5.3L29,78.2c-2.9-3.5-7.6-5.3-12-4.3c-2.7,0.6-5.2,2.2-6.4,5.8c0.3,5.1,1.2,10.6,2.6,16.4c1.5,6.2,2.5,15.2,2.5,15.4l0,0l0,0c0,0,0,0,0,0c0,0,0,0,0,0l0,0l0,0c0.2,0.1,8.9,2.6,14.7,5.2c18.6,8.3,33.9,9.8,46.3,2c1.4-0.9,2.6-1.8,3.8-2.8C81.3,115.5,82,114.9,82.7,114.3z"/><path fill="#FFF" d="M58.9 53.6c-.6 0-1.3-.2-1.8-.6-4.3-3.3-9.8-4.8-15.3-4.5-1.6.1-3.1-1.1-3.2-2.8-.1-1.7 1.1-3.1 2.8-3.2 7-.5 13.8 1.5 19.3 5.6 1.3 1 1.6 2.9.6 4.2C60.7 53.1 59.8 53.6 58.9 53.6zM33.3 50.5c-.2 0-.4 0-.6-.1-.2 0-.4-.1-.6-.2-.2-.1-.4-.2-.5-.3-.2-.1-.3-.2-.5-.4-.1-.1-.3-.3-.4-.5-.1-.2-.2-.3-.3-.5-.1-.2-.1-.4-.2-.6s-.1-.4-.1-.6c0-.2 0-.4.1-.6s.1-.4.2-.6c.1-.2.2-.4.3-.5.1-.2.2-.3.4-.5.1-.1.3-.3.5-.4s.3-.2.5-.3c.2-.1.4-.1.6-.2.4-.1.8-.1 1.2 0 .2 0 .4.1.6.2.2.1.4.2.5.3.2.1.3.2.5.4.1.1.3.3.4.5.1.2.2.3.3.5.1.2.1.4.2.6s.1.4.1.6c0 .2 0 .4-.1.6s-.1.4-.2.6c-.1.2-.2.4-.3.5-.1.2-.2.3-.4.5-.1.1-.3.3-.5.4-.2.1-.3.2-.5.3-.2.1-.4.1-.6.2C33.7 50.5 33.5 50.5 33.3 50.5z"/><path fill="#444B54" d="M10.6 119c-.9 0-1.7-.4-2.3-1.1-1.1-1.3-.9-3.2.4-4.2 4.3-3.6 10-4.3 16.5-2.2 1.6.5 2.4 2.2 1.9 3.8-.5 1.6-2.2 2.4-3.8 1.9-4.4-1.5-8-1.1-10.7 1.1C11.9 118.8 11.2 119 10.6 119zM89.8 82.3c-1.1 0-2.2-.7-2.7-1.8-2.9-6.3-6.4-11.7-11.7-18.1-4.4-5.3-9.1-10-12.8-12.8-1.3-1-1.6-2.9-.6-4.2 1-1.3 2.9-1.6 4.2-.6 4 3.1 9.1 8.1 13.8 13.7 5.7 6.8 9.5 12.6 12.6 19.4.7 1.5 0 3.3-1.5 4C90.7 82.2 90.3 82.3 89.8 82.3z"/><path fill="#444B54" d="M85.9,79.2c-0.3,0-0.5,0-0.8,0c-4.6-0.4-10.2-4.6-16.2-11.9c-1-1.3-0.9-3.2,0.4-4.2c1.3-1,3.2-0.9,4.2,0.4c7.4,9,11.7,10,12.5,9.8c1.3-1,3.1-0.8,4.2,0.4c1.1,1.3,0.9,3.2-0.4,4.2C89.1,78.5,87.8,79.2,85.9,79.2z"/><path fill="#444B54" d="M71.2,68.3c-1.4,0-2.6-0.9-2.9-2.3c-0.4-1.6,0.6-3.2,2.2-3.6l21.8-5.2c1.6-0.4,3.2,0.6,3.6,2.2s-0.6,3.2-2.2,3.6l-21.8,5.2C71.7,68.3,71.5,68.3,71.2,68.3z"/><path fill="#444B54" d="M71.2,68.3c-0.9,0-1.7-0.4-2.3-1.1c-1.1-1.3-0.9-3.2,0.4-4.2l21.5-18c1.3-1.1,3.2-0.9,4.2,0.4c1.1,1.3,0.9,3.2-0.4,4.2l-21.5,18C72.6,68.1,71.9,68.3,71.2,68.3z"/><path fill="#444B54" d="M71.2,68.3c-0.4,0-0.8-0.1-1.2-0.3c-1.5-0.7-2.2-2.4-1.6-3.9l8.9-20.5c0.7-1.5,2.4-2.2,3.9-1.6c1.5,0.7,2.2,2.4,1.6,3.9L74,66.5C73.5,67.6,72.4,68.3,71.2,68.3z"/><path fill="#444B54" d="M58.6,127c-8.5,0-18.2-2.5-29.3-7.4c-1.7-0.7-3.7-1.6-6.2-2.4c-1.6-0.6-2.4-2.3-1.8-3.8c0.6-1.6,2.3-2.4,3.8-1.8c2.6,0.9,4.8,1.8,6.6,2.6c21.8,9.7,37.3,9,48.9-2c10.4-9.9,11.6-26.6,2.8-37.9c-2.1-2.7-4.6-5-7.4-6.7c-1.3-0.8-2.5-1.9-3.6-3.1c-1-1.2-1.8-2.6-2.4-4.1c-1.3-3.1-3-6-5.3-8.5c-9.6-10.6-26.2-12.4-37.8-4c-12.9,9.4-16.3,24.6-10.7,47.7c0.4,1.6,0.8,3.5,1.1,5.6c0.3,1.6-0.8,3.2-2.4,3.5c-1.6,0.3-3.2-0.8-3.5-2.4c-0.3-2-0.7-3.7-1.1-5.2c-6.3-25.8-2.2-43,13-54c14-10.2,34.2-8.1,45.8,4.8c2.8,3.1,4.9,6.5,6.4,10.3c0.4,0.9,0.9,1.7,1.5,2.5c0.6,0.7,1.3,1.4,2.2,1.9c3.4,2.2,6.5,4.9,9,8.2c10.6,13.8,9.1,33.9-3.4,45.9C77.4,123.5,68.8,127,58.6,127z"/><g><path fill="#FF9166" d="M76.4,81.8L76.4,81.8c8.2-1.4,16.3,6.3,18.1,17.2l0,0c1.8,10.9-3.3,20.8-11.5,22.2l0,0c-22.9,3.9-46.4,3.6-69.9-0.7l-3.7-0.7c-5.1-0.9-6.7-10.1-2.1-12.7l3.3-1.8C31.4,93.6,53.5,85.7,76.4,81.8z"/><path fill="#FF9166" d="M76.4,81.8L76.4,81.8c8.2-1.4,16.3,6.3,18.1,17.2l0,0c1.8,10.9-3.3,20.8-11.5,22.2l0,0c-22.9,3.9-46.4,3.6-69.9-0.7l-3.7-0.7c-5.1-0.9-6.7-10.1-2.1-12.7l3.3-1.8C31.4,93.6,53.5,85.7,76.4,81.8z"/><path fill="#444B54" d="M104.4,100.4c-1.4,0-2.7-1-3-2.5c-0.3-1.6,0.8-3.2,2.5-3.5l18.7-3.2c1.6-0.3,3.2,0.8,3.5,2.5c0.3,1.6-0.8,3.2-2.5,3.5l-18.7,3.2C104.7,100.4,104.6,100.4,104.4,100.4z"/><path fill="#444B54" d="M105.4 111.3c-6.8 0-12.7-4.9-13.8-11.7-.3-1.6.8-3.2 2.5-3.5 1.6-.3 3.2.8 3.5 2.5.7 4.1 4.3 7 8.5 6.7l10.1-.7c1.7-.1 3.1 1.1 3.2 2.8.1 1.7-1.1 3.1-2.8 3.2l-10.1.7C106.1 111.3 105.7 111.3 105.4 111.3zM100.8 90.9c-1.2 0-2.4-.8-2.8-2-.5-1.6.3-3.3 1.9-3.8l11.5-4c1.6-.5 3.3.3 3.8 1.9.5 1.6-.3 3.3-1.9 3.8l-11.5 4C101.4 90.8 101.1 90.9 100.8 90.9z"/><path fill="#BC6157" d="M82.8,118.3c0.1,0,0.1,0,0.2-0.1c0.1,0,0.3-0.1,0.4-0.2c0,0,0.1,0,0.1,0c0,0,0,0,0.1,0c0.1-0.1,0.2-0.2,0.4-0.2c0,0,0.1-0.1,0.1-0.1c0.1-0.1,0.2-0.2,0.3-0.3c0,0,0.1-0.1,0.1-0.1c0.1-0.1,0.2-0.2,0.2-0.3c0,0,0.1-0.1,0.1-0.1c0.1-0.1,0.1-0.2,0.2-0.4c0-0.1,0-0.1,0.1-0.2c0-0.1,0.1-0.3,0.1-0.4c0-0.1,0-0.1,0-0.2c0-0.1,0-0.2,0-0.4c0-0.1,0-0.2,0-0.3c0,0,0-0.1,0-0.1c0-0.1,0-0.1-0.1-0.2c0-0.1,0-0.2-0.1-0.3c0-0.1-0.1-0.2-0.1-0.3c0,0,0-0.1-0.1-0.1c0-0.1-2.7-5.3-4.5-15.4C80,97,78.6,95.8,77,95.9c-1.7,0.2-2.9,1.8-2.6,3.5c0.6,3.7,1.4,6.7,2.1,9.2c0.7,2.3-0.9,4.7-3.3,5c-0.5,0.1-1,0.1-1.4,0.2c-1.9,0.2-3.7-0.9-4.2-2.8l-0.8-2.7c-0.4-1.5-1.9-2.5-3.5-2.2c-1.6,0.3-2.7,1.9-2.4,3.4c0,0.1,0,0.2,0.1,0.4l0,0c0.7,2.4-1,4.9-3.6,5c-10.3,0.4-20.7,0-31.1-1.2c-4.4-0.5-5.2,5.4-0.5,6c19.1,2.2,38.2,1.7,56.8-1.4C82.7,118.3,82.7,118.3,82.8,118.3z"/><path fill="#BC6157" d="M42,105.8l0-0.2c-0.3-1.6-1.8-2.7-3.5-2.5s-2.7,1.8-2.5,3.5l0,0.2c0.3,1.6,1.8,2.7,3.5,2.5C41.1,109,42.2,107.5,42,105.8z"/><path fill="#444B54" d="M50.4,127c-12.5,0-25.1-1.2-37.7-3.5L9,122.8c-3.6-0.7-6.4-3.9-7.1-8.2c-0.7-4.3,0.9-8.3,4-10.1l3.3-1.8c21-11.9,43.5-20,66.8-23.9l0,0c5.9-1,11,0.7,14.9,4.8c3.3,3.5,5.6,8.6,6.6,14.9c3.3,19.7-7.3,24.6-13.9,25.7C72.6,126.1,61.5,127,50.4,127z M76.9,84.8C54.4,88.6,32.6,96.4,12.1,108l-3.3,1.8c-1.1,0.6-1.3,2.4-1.1,3.8c0.2,1.4,1.1,3.1,2.3,3.3l3.7,0.7c23.1,4.3,46.3,4.5,68.8,0.7c2.9-0.5,11.8-2,9-18.8c-0.9-5.1-2.6-9.2-5.1-11.8C84,85.1,80.9,84.1,76.9,84.8L76.9,84.8z M76.4,81.8L76.4,81.8L76.4,81.8z"/><path fill="#FFF" d="M88.6 103.1c-1.4 0-2.7-1-3-2.5-.6-3.5-1.6-6.3-3-8-1.3-1.6-2.8-2.2-4.8-1.9-1.6.3-3.2-.8-3.5-2.5s.8-3.2 2.5-3.5c4.2-.7 7.8.7 10.5 4.1 2 2.5 3.4 6.1 4.2 10.7.3 1.6-.8 3.2-2.5 3.5C89 103 88.8 103.1 88.6 103.1zM64.8 93.3c-1.4 0-2.6-.9-2.9-2.3-.4-1.6.6-3.2 2.2-3.6.6-.1 1.2-.3 1.7-.4 1.6-.4 3.2.6 3.6 2.3s-.6 3.2-2.3 3.6c-.6.1-1.1.3-1.7.4C65.3 93.3 65 93.3 64.8 93.3z"/><path fill="#444B54" d="M109,127H54.4c-1.7,0-3-1.3-3-3s1.3-3,3-3H109c1.7,0,3,1.3,3,3S110.7,127,109,127z"/><g><path fill="#444B54" d="M124,127c-0.8,0-1.6-0.3-2.1-0.9c-0.6-0.6-0.9-1.3-0.9-2.1c0-0.2,0-0.4,0.1-0.6c0-0.2,0.1-0.4,0.2-0.6c0.1-0.2,0.2-0.3,0.3-0.5c0.1-0.2,0.2-0.3,0.4-0.5c1.1-1.1,3.1-1.1,4.2,0c0.1,0.1,0.3,0.3,0.4,0.5c0.1,0.2,0.2,0.3,0.3,0.5c0.1,0.2,0.1,0.4,0.2,0.6c0,0.2,0.1,0.4,0.1,0.6c0,0.8-0.3,1.6-0.9,2.1C125.6,126.7,124.8,127,124,127z"/></g></g></svg>