<svg xmlns="http://www.w3.org/2000/svg" viewBox="0 0 512 512"><defs><style>.cls-1{fill:#eaf2ff;}.cls-2{fill:#c1d1f7;}.cls-3{fill:#adbeee;}</style></defs><title>22. Snowflake</title><g id="_22._Snowflake" data-name="22. Snowflake"><path class="cls-1" d="M423.35,334.14l41.57,24a16,16,0,0,1-16,27.72l-41.56-24,7.32,27.32A17,17,0,1,1,381.89,398l-16.11-60.1-57-32.91A71.89,71.89,0,0,1,272,326.19V392l44,44a17,17,0,0,1-24,24l-20-20v48a16,16,0,0,1-32,0V440l-20,20a17,17,0,0,1-24-24l44-44V326.19A71.89,71.89,0,0,1,203.22,305l-57,32.91L130.11,398a17,17,0,1,1-32.78-8.78l7.32-27.32-41.56,24a16,16,0,0,1-16-27.72l41.57-24-27.32-7.32A17,17,0,0,1,70.11,294l60.11,16.1,57-32.89a72.35,72.35,0,0,1,0-42.5l-57-32.89L70.11,218a17,17,0,1,1-8.78-32.78l27.32-7.32-41.56-24a16,16,0,1,1,16-27.72l41.56,24-7.32-27.32A17,17,0,1,1,130.11,114l16.11,60.1,57,32.91A71.89,71.89,0,0,1,240,185.81V120L196,76a17,17,0,0,1,24-24l20,20V24a16,16,0,0,1,32,0V72l20-20a17,17,0,0,1,24,24l-44,44v65.81a71.89,71.89,0,0,1,36.78,21.24l57-32.91,16.36-61a16,16,0,0,1,19.59-11.31l1.87.5a16,16,0,0,1,11.32,19.6l-7.57,28.25,41.56-24a16,16,0,1,1,16,27.72l-41.56,24,28.26,7.57A16,16,0,0,1,462.92,205l-.5,1.87a16,16,0,0,1-19.6,11.32l-61-16.35-57,32.89a72.35,72.35,0,0,1,0,42.5l57,32.89L441.89,294a17,17,0,1,1,8.78,32.78Z"/><path class="cls-2" d="M247.08,48V10.72A16,16,0,0,0,240,24V40.92Z"/><path class="cls-2" d="M256,480a16,16,0,0,1-16-16v24a16,16,0,0,0,32,0V464A16,16,0,0,1,256,480Z"/><path d="M256,512a24,24,0,0,1-24-24V459.31l-6.34,6.35a25,25,0,0,1-35.32-35.32L232,388.69V360a8,8,0,0,1,16,0v32a8,8,0,0,1-2.34,5.66l-44,44A8.87,8.87,0,0,0,199,448a9,9,0,0,0,15.31,6.34l20-20A8,8,0,0,1,248,440v48a8,8,0,0,0,16,0V440a8,8,0,0,1,13.66-5.66l20,20A9,9,0,0,0,313,448a8.87,8.87,0,0,0-2.63-6.34l-44-44A8,8,0,0,1,264,392V326.19a8,8,0,0,1,6.23-7.8,63.66,63.66,0,0,0,32.69-18.88,8,8,0,0,1,9.86-1.49l57,32.91a8,8,0,0,1,3.73,4.86l16.11,60.1a9,9,0,0,0,17.32-4.64l-7.32-27.32a8,8,0,0,1,11.73-9l41.56,24a8,8,0,0,0,8-13.86l-41.57-24a8,8,0,0,1,1.93-14.66l27.32-7.32A9,9,0,0,0,444,301.77l-60.11,16.1a8,8,0,0,1-6.07-.8l-57-32.89a8,8,0,0,1-3.65-9.28,64.33,64.33,0,0,0,0-37.8,8,8,0,0,1,3.65-9.28l57-32.89a8,8,0,0,1,6.07-.8l61,16.35a8,8,0,0,0,9.8-5.65l.5-1.88a8,8,0,0,0-5.65-9.79l-28.26-7.57a8,8,0,0,1-1.93-14.66l41.56-24a8,8,0,1,0-8-13.86l-41.56,24a8,8,0,0,1-11.73-9l7.57-28.25a8,8,0,0,0-5.66-9.8l-1.87-.5a8,8,0,0,0-9.79,5.65l-16.36,61a8,8,0,0,1-3.73,4.86l-57,32.91a8,8,0,0,1-9.86-1.49,63.66,63.66,0,0,0-32.69-18.88,8,8,0,0,1,3.54-15.6,79.45,79.45,0,0,1,36.31,19.05l48.83-28.19L374.41,111a24,24,0,0,1,29.39-17l1.87.5a24,24,0,0,1,17,29.4l-2.57,9.59,24.83-14.34a24,24,0,1,1,24,41.58l-24.83,14.34,9.6,2.57a24,24,0,0,1,17,29.39l-.5,1.87a24,24,0,0,1-29.4,17l-57.84-15.5L334.1,238.62a80.39,80.39,0,0,1,0,34.76l48.81,28.18,56.91-15.25a25,25,0,0,1,12.92,48.24l-8.66,2.32,24.84,14.34a24,24,0,0,1-24,41.58l-24.83-14.34,2.32,8.66A25,25,0,1,1,374.16,400l-15.25-56.9-48.83-28.19A79.47,79.47,0,0,1,280,332.31v56.38l41.66,41.65a25,25,0,0,1-35.32,35.32L280,459.31V488A24,24,0,0,1,256,512Z"/><path d="M113.71,418.54A25,25,0,0,1,89.6,387.11l2.32-8.66L67.09,392.79a24,24,0,0,1-24-41.58l24.84-14.34-8.66-2.32a25,25,0,0,1,12.92-48.24l56.91,15.25,48.81-28.18a80.39,80.39,0,0,1,0-34.76l-48.81-28.18L72.18,225.69a25,25,0,0,1-12.92-48.24l8.66-2.32L43.09,160.79a24,24,0,1,1,24-41.57l24.83,14.33-2.32-8.66A25,25,0,0,1,137.84,112l15.25,56.9,48.83,28.19A79.4,79.4,0,0,1,232,179.69V123.31L190.34,81.66a25,25,0,0,1,35.32-35.32L232,52.69V24a24,24,0,0,1,48,0V52.69l6.34-6.35a25,25,0,0,1,35.32,35.32L280,123.31V152a8,8,0,0,1-16,0V120a8,8,0,0,1,2.34-5.66l44-44a9,9,0,0,0-12.68-12.68l-20,20A8,8,0,0,1,264,72V24a8,8,0,0,0-16,0V72a8,8,0,0,1-13.66,5.66l-20-20A9,9,0,0,0,199,64a8.87,8.87,0,0,0,2.63,6.34l44,44A8,8,0,0,1,248,120v65.81a8,8,0,0,1-6.23,7.8,63.66,63.66,0,0,0-32.69,18.88,8,8,0,0,1-9.86,1.49l-57-32.91a8,8,0,0,1-3.73-4.86l-16.11-60.1a9,9,0,0,0-17.32,4.64l7.32,27.32a8,8,0,0,1-11.73,9l-41.56-24a8,8,0,1,0-8,13.86l41.56,24a8,8,0,0,1-1.93,14.66L63.4,192.91A9,9,0,1,0,68,210.23l60.11-16.1a8,8,0,0,1,6.07.8l57,32.89a8,8,0,0,1,3.65,9.28,64.25,64.25,0,0,0,0,37.8,8,8,0,0,1-3.65,9.28l-57,32.89a8,8,0,0,1-6.07.8L68,301.77a9,9,0,1,0-4.64,17.32l27.32,7.32a8,8,0,0,1,1.93,14.66l-41.57,24a8,8,0,0,0,8,13.86l41.56-24a8,8,0,0,1,11.73,9l-7.32,27.32a9,9,0,0,0,17.32,4.64l16.11-60.1a8,8,0,0,1,3.73-4.86l57-32.91a8,8,0,0,1,9.86,1.49,63.66,63.66,0,0,0,32.69,18.88,8,8,0,1,1-3.54,15.6,79.45,79.45,0,0,1-36.31-19.05l-48.83,28.19L137.84,400A25,25,0,0,1,113.71,418.54Z"/><circle class="cls-2" cx="256" cy="256" r="32"/><path class="cls-3" d="M256,264a32,32,0,0,1-29.67-20,32,32,0,1,0,59.34,0A32,32,0,0,1,256,264Z"/><path d="M256,296a40,40,0,1,1,40-40A40,40,0,0,1,256,296Zm0-64a24,24,0,1,0,24,24A24,24,0,0,0,256,232Z"/></g></svg>