<svg xmlns="http://www.w3.org/2000/svg"  viewBox="0 0 128 128" width="256px" height="256px"><path fill="#fff" d="M79 42L64 57 49 42 49 17 64 27 79 17z"/><path fill="#b6efe8" d="M79 42L64 57 64 27 79 17z"/><path fill="#444b54" d="M64,60c-0.8,0-1.5-0.3-2.1-0.9l-15-15C46.3,43.6,46,42.8,46,42V27c0-1.7,1.3-3,3-3s3,1.3,3,3v13.8l12,12l12-12V22.6l-10.3,6.9c-1,0.7-2.3,0.7-3.3,0l-15-10c-1.4-0.9-1.8-2.8-0.8-4.2c0.9-1.4,2.8-1.8,4.2-0.8L64,23.4l13.3-8.9c0.9-0.6,2.1-0.7,3.1-0.1c1,0.5,1.6,1.5,1.6,2.6v25c0,0.8-0.3,1.6-0.9,2.1l-15,15C65.5,59.7,64.8,60,64,60z"/><path fill="#fff" d="M42 79L57 64 42 49 17 49 27 64 17 79z"/><path fill="#b6efe8" d="M42 79L57 64 27 64 17 79z"/><path fill="#444b54" d="M42,82H17c-1.1,0-2.1-0.6-2.6-1.6c-0.5-1-0.5-2.2,0.1-3.1L23.4,64l-8.9-13.3c-0.9-1.4-0.5-3.2,0.8-4.2c1.4-0.9,3.2-0.5,4.2,0.8l10,15c0.7,1,0.7,2.3,0,3.3L22.6,76h18.2l12-12l-12-12H27c-1.7,0-3-1.3-3-3s1.3-3,3-3h15c0.8,0,1.6,0.3,2.1,0.9l15,15c1.2,1.2,1.2,3.1,0,4.2l-15,15C43.6,81.7,42.8,82,42,82z"/><path fill="#b6efe8" d="M79 86L64 71 49 86 49 111 64 101 79 111z"/><path fill="#659ec9" d="M79 86L64 71 64 101 79 111z"/><path fill="#444b54" d="M79,114c-0.6,0-1.2-0.2-1.7-0.5L64,104.6l-13.3,8.9c-0.9,0.6-2.1,0.7-3.1,0.1c-1-0.5-1.6-1.5-1.6-2.6V86c0-1.7,1.3-3,3-3s3,1.3,3,3v19.4l10.3-6.9c1-0.7,2.3-0.7,3.3,0l10.3,6.9V87.2l-12-12l-5.9,5.9c-1.2,1.2-3.1,1.2-4.2,0c-1.2-1.2-1.2-3.1,0-4.2l8-8c1.2-1.2,3.1-1.2,4.2,0l15,15c0.6,0.6,0.9,1.3,0.9,2.1v25c0,1.1-0.6,2.1-1.6,2.6C80,113.9,79.5,114,79,114z"/><g><path fill="#b6efe8" d="M86 79L71 64 86 49 111 49 101 64 111 79z"/><path fill="#659ec9" d="M86 79L71 64 101 64 111 79z"/><path fill="#444b54" d="M111,82H86c-0.8,0-1.6-0.3-2.1-0.9l-15-15c-1.2-1.2-1.2-3.1,0-4.2c1.2-1.2,3.1-1.2,4.2,0L87.2,76h18.2l-6.9-10.3c-0.7-1-0.7-2.3,0-3.3l6.9-10.3H87.2l-7.1,7.1c-1.2,1.2-3.1,1.2-4.2,0c-1.2-1.2-1.2-3.1,0-4.2l8-8c0.6-0.6,1.3-0.9,2.1-0.9h25c1.1,0,2.1,0.6,2.6,1.6c0.5,1,0.5,2.2-0.1,3.1L104.6,64l8.9,13.3c0.6,0.9,0.7,2.1,0.1,3.1C113.1,81.4,112.1,82,111,82z"/></g><g><path fill="#444b54" d="M101,104c-0.8,0-1.6-0.3-2.1-0.9c-0.6-0.6-0.9-1.3-0.9-2.1c0-0.2,0-0.4,0.1-0.6c0-0.2,0.1-0.4,0.2-0.6c0.1-0.2,0.2-0.4,0.3-0.5c0.1-0.2,0.2-0.3,0.4-0.5c1.1-1.1,3.1-1.1,4.2,0c0.1,0.1,0.3,0.3,0.4,0.5c0.1,0.2,0.2,0.3,0.3,0.5c0.1,0.2,0.1,0.4,0.2,0.6c0,0.2,0.1,0.4,0.1,0.6c0,0.8-0.3,1.6-0.9,2.1C102.6,103.7,101.8,104,101,104z"/></g><g><path fill="#444b54" d="M27,104c-0.2,0-0.4,0-0.6-0.1c-0.2,0-0.4-0.1-0.6-0.2c-0.2-0.1-0.3-0.2-0.5-0.3c-0.2-0.1-0.3-0.2-0.5-0.4c-0.1-0.1-0.3-0.3-0.4-0.4c-0.1-0.2-0.2-0.3-0.3-0.5s-0.1-0.4-0.2-0.6c0-0.2-0.1-0.4-0.1-0.6c0-0.8,0.3-1.6,0.9-2.1c0.1-0.1,0.3-0.3,0.5-0.4c0.2-0.1,0.3-0.2,0.5-0.3c0.2-0.1,0.4-0.1,0.6-0.2c1-0.2,2,0.1,2.7,0.8c0.6,0.6,0.9,1.3,0.9,2.1c0,0.2,0,0.4-0.1,0.6c0,0.2-0.1,0.4-0.2,0.6s-0.2,0.4-0.3,0.5c-0.1,0.2-0.2,0.3-0.4,0.4C28.6,103.7,27.8,104,27,104z"/></g><g><path fill="#444b54" d="M27,30c-0.2,0-0.4,0-0.6-0.1c-0.2,0-0.4-0.1-0.6-0.2c-0.2-0.1-0.3-0.2-0.5-0.3c-0.2-0.1-0.3-0.2-0.5-0.4c-0.1-0.1-0.3-0.3-0.4-0.4c-0.1-0.2-0.2-0.3-0.3-0.5s-0.1-0.4-0.2-0.6c0-0.2-0.1-0.4-0.1-0.6c0-0.8,0.3-1.6,0.9-2.1c0.1-0.1,0.3-0.3,0.5-0.4c0.2-0.1,0.3-0.2,0.5-0.3c0.2-0.1,0.4-0.1,0.6-0.2c1-0.2,2,0.1,2.7,0.8c0.6,0.6,0.9,1.3,0.9,2.1c0,0.2,0,0.4-0.1,0.6c0,0.2-0.1,0.4-0.2,0.6s-0.2,0.4-0.3,0.5c-0.1,0.2-0.2,0.3-0.4,0.4C28.6,29.7,27.8,30,27,30z"/></g><g><path fill="#444b54" d="M101,30c-0.8,0-1.6-0.3-2.1-0.9C98.3,28.6,98,27.8,98,27s0.3-1.6,0.9-2.1c1.1-1.1,3.1-1.1,4.2,0c0.6,0.6,0.9,1.3,0.9,2.1s-0.3,1.6-0.9,2.1C102.6,29.7,101.8,30,101,30z"/></g></svg>