<svg xmlns="http://www.w3.org/2000/svg"  viewBox="0 0 128 128" width="256px" height="256px"><path fill="#F6E6E6" d="M4,89.5c0-33.4,27.4-60.5,60.9-60C97.9,30,124,57.5,124,90.4v2.7c0,5.3-4.4,9.6-9.7,9.5L4.2,100.5L4,89.5z"/><path fill="#F7C9C6" d="M14,89.5c0-27.6,22.4-50,50-50s50,22.4,50,50v11.2H14V89.5z"/><path fill="#F37778" d="M27,90.1c0-20.4,16.6-37,37-37s37,16.6,37,37v10.4l-74,0.2V90.1z"/><path fill="#454B54" d="M73.9 106c-.1 0-.1 0-.2 0-3.7 0-7.2-1.3-10-3.5-2.8 2.1-6.2 3.3-9.8 3.3-3.7 0-7.1-1.2-9.9-3.3-2.8 2.2-6.2 3.3-9.9 3.3-3.7 0-7.1-1.2-9.9-3.3-2.8 2.2-6.2 3.3-9.9 3.3-4.7 0-9.2-2-12.2-5.5C1.1 99 1.3 97.1 2.6 96c1.3-1.1 3.2-.9 4.2.3 1.8 2.2 4.6 3.4 7.6 3.4 3 0 5.8-1.2 7.6-3.4.6-.7 1.4-1.1 2.3-1.1s1.7.4 2.3 1.1c1.8 2.2 4.6 3.4 7.6 3.4 3 0 5.8-1.2 7.6-3.4.6-.7 1.4-1.1 2.3-1.1s1.7.4 2.3 1.1c1.8 2.2 4.6 3.4 7.6 3.4 3 0 5.8-1.2 7.6-3.4.6-.7 1.4-1.1 2.3-1.1 0 0 0 0 0 0 .9 0 1.7.4 2.3 1.1l.2.2c1.8 2.1 4.6 3.4 7.5 3.4 2.9 0 5.7-1.2 7.6-3.3l.4-.4c.6-.7 1.4-1 2.3-1 .9 0 1.7.4 2.3 1.1 1.8 2.2 4.6 3.4 7.6 3.4 1.7 0 3 1.3 3 3s-1.3 3-3 3c-3.6 0-7.1-1.2-9.8-3.3C81.2 104.7 77.6 106 73.9 106zM88.8 115.3H77.9c-1.7 0-3-1.3-3-3s1.3-3 3-3h10.9c1.7 0 3 1.3 3 3S90.5 115.3 88.8 115.3zM90.8 124.3c-.8 0-1.6-.3-2.1-.9-.5-.6-.9-1.3-.9-2.1s.3-1.6.9-2.1c1.1-1.1 3.1-1.1 4.2 0 .6.6.9 1.3.9 2.1s-.3 1.6-.9 2.1C92.4 124 91.6 124.3 90.8 124.3zM123.5 101.3c-1.7 0-3-1.3-3-3s1.3-3 3-3h0c1.7 0 3 1.3 3 3S125.2 101.3 123.5 101.3z"/><path fill="#454B54" d="M93.8,105.8c-4.7,0-9.2-2-12.2-5.5C80.6,99,80.8,97.1,82,96c1.3-1.1,3.2-0.9,4.2,0.3c1.8,2.2,4.6,3.4,7.6,3.4c3,0,5.8-1.2,7.6-3.4c0.6-0.7,1.4-1.1,2.3-1.1l0,0c0.9,0,1.7,0.4,2.3,1.1c1.8,2.1,4.5,3.3,7.3,3.4c1.7,0,3,1.4,2.9,3.1c0,1.6-1.4,2.9-3,2.9c0,0-0.1,0-0.1,0c-3.5-0.1-6.8-1.3-9.5-3.3C101,104.6,97.5,105.8,93.8,105.8z"/><g><path fill="#454B54" d="M101,93.1c-1.7,0-3-1.3-3-3c0-18.7-15.3-34-34-34c-18.7,0-34,15.3-34,34c0,1.7-1.3,3-3,3s-3-1.3-3-3c0-22.1,17.9-40,40-40c22.1,0,40,17.9,40,40C104,91.8,102.7,93.1,101,93.1z"/></g><g><path fill="#454B54" d="M100.3,24.9c-0.5,0-1.1-0.1-1.5-0.4c-3.1-1.9-6.7-2.9-10.4-3l-1,0c-1.7,0-3-1.4-2.9-3.1c0-1.6,1.4-2.9,3-2.9c0,0,0,0,0.1,0l1,0c3.1,0.1,6.2,0.7,9.1,1.8c0.7-3.7,2.7-7.1,5.5-9.6c1.2-1.1,3.1-1,4.2,0.3c1.1,1.2,1,3.1-0.3,4.2c-2.4,2.1-3.8,5.2-3.8,8.4l0,1.3c0,1.1-0.6,2.1-1.5,2.6C101.3,24.8,100.8,24.9,100.3,24.9z"/></g></svg>