<svg xmlns="http://www.w3.org/2000/svg" viewBox="0 0 512 512"><defs><style>.cls-1{fill:#e9a648;}.cls-2{fill:#d08840;}.cls-3{fill:#e38343;}.cls-4{fill:#df6117;}</style></defs><title>6. Sun</title><g id="_6._Sun" data-name="6. Sun"><path class="cls-1" d="M504,256A131.19,131.19,0,0,1,431.36,80.64,131.19,131.19,0,0,1,256,8,131.19,131.19,0,0,1,80.64,80.64,131.19,131.19,0,0,1,8,256,131.19,131.19,0,0,1,80.64,431.36,131.19,131.19,0,0,1,256,504a131.19,131.19,0,0,1,175.36-72.64A131.19,131.19,0,0,1,504,256Z"/><path class="cls-2" d="M422.66,403.89A131.19,131.19,0,0,0,256,480h0A131.19,131.19,0,0,0,89.34,403.89a135.45,135.45,0,0,1-8.7,27.47h0A131.19,131.19,0,0,1,256,504h0a131.19,131.19,0,0,1,175.36-72.64A132.85,132.85,0,0,1,422.66,403.89Z"/><path d="M248.54,506.89A123.1,123.1,0,0,0,83.87,438.68a8,8,0,0,1-10.55-10.55,123.15,123.15,0,0,0,9.88-37,8,8,0,1,1,15.91,1.68,137.85,137.85,0,0,1-5,25c62.71-18.76,130.76,9.34,161.89,67.05,31.07-57.6,99.07-85.84,161.87-67.05A139.22,139.22,0,0,1,484.93,256a139.28,139.28,0,0,1-15.14-9.5,8,8,0,0,1,9.36-13,123.7,123.7,0,0,0,27.74,15,8,8,0,0,1,0,14.92,123.11,123.11,0,0,0-68.21,164.67,8,8,0,0,1-10.55,10.55,123.11,123.11,0,0,0-164.67,68.21A8,8,0,0,1,248.54,506.89Z"/><path d="M90.56,368a8,8,0,0,1-7.92-6.87A123.43,123.43,0,0,0,5.11,263.46a8,8,0,0,1,0-14.92A123.11,123.11,0,0,0,73.32,83.87,8,8,0,0,1,83.87,73.32,123.11,123.11,0,0,0,248.54,5.11a8,8,0,0,1,14.92,0A123.11,123.11,0,0,0,428.13,73.32a8,8,0,0,1,10.55,10.55A122.88,122.88,0,0,0,455.43,211,8,8,0,0,1,443,221,138.74,138.74,0,0,1,417.89,94.13c-62.7,18.76-130.76-9.34-161.89-67A139.21,139.21,0,0,1,94.13,94.13,139.22,139.22,0,0,1,27.05,256,139.56,139.56,0,0,1,98.49,358.87,8,8,0,0,1,90.56,368Z"/><circle class="cls-3" cx="256" cy="256" r="136"/><path class="cls-4" d="M256,368A136,136,0,0,1,120.53,244a136,136,0,1,0,270.94,0A136,136,0,0,1,256,368Z"/><path d="M256,400c-79.4,0-144-64.6-144-144s64.6-144,144-144,144,64.6,144,144S335.4,400,256,400Zm0-272A128,128,0,1,0,384,256,128.14,128.14,0,0,0,256,128Z"/></g></svg>