<svg xmlns="http://www.w3.org/2000/svg" viewBox="0 0 512 512"><defs><style>.cls-1{fill:#e9a648;}.cls-2{fill:#d08840;}.cls-3{fill:#eaf2ff;}.cls-4{fill:#c1d1f7;}</style></defs><title>7. Cloud Sun</title><g id="_7._Cloud_Sun" data-name="7. Cloud Sun"><circle class="cls-1" cx="312" cy="224" r="120"/><path class="cls-2" d="M408.61,295.19A120,120,0,1,1,216,152c67.54,0,123.72,49.47,134.24,114.06A119.69,119.69,0,0,1,408.61,295.19Z"/><path d="M312,352a128,128,0,1,1,108.29-59.73,8,8,0,0,1-13.53-8.54,112.08,112.08,0,1,0-20.09,23.75,8,8,0,0,1,10.67,11.92A127.79,127.79,0,0,1,312,352Z"/><path d="M504,232H472a8,8,0,0,1,0-16h32a8,8,0,0,1,0,16Z"/><path d="M425.14,118.86a8,8,0,0,1-5.66-13.65l22.63-22.63a8,8,0,0,1,11.31,11.31l-22.63,22.63A8,8,0,0,1,425.14,118.86Z"/><path d="M312,72a8,8,0,0,1-8-8V32a8,8,0,0,1,16,0V64A8,8,0,0,1,312,72Z"/><path d="M198.86,118.86a8,8,0,0,1-5.65-2.34L170.58,93.89a8,8,0,0,1,11.31-11.31l22.63,22.63A8,8,0,0,1,198.86,118.86Z"/><path class="cls-3" d="M424,384a96,96,0,0,1-96,96H96A88,88,0,0,1,52.2,315.66C38,284.15,61.05,248,96,248a47.86,47.86,0,0,1,14.54,2.24A112,112,0,0,1,328,288,96,96,0,0,1,424,384Z"/><path class="cls-4" d="M328,456H96A88,88,0,0,1,8.81,380,88,88,0,0,0,96,480H328a96,96,0,0,0,95.25-108A96,96,0,0,1,328,456Z"/><path d="M328,488H144a8,8,0,0,1,0-16H328a88,88,0,0,0,0-176,8,8,0,0,1-8-8,104,104,0,0,0-201.93-35.07,8,8,0,0,1-10,4.93A40,40,0,0,0,59.5,312.38a8,8,0,0,1-3.31,10.21A80,80,0,0,0,96,472h16a8,8,0,0,1,0,16H96A96,96,0,0,1,42.42,312.34c-12.14-39.74,22-78.66,63.22-71.51a120,120,0,0,1,230.11,39.46A104,104,0,0,1,328,488Z"/><path d="M268.25,308.43a8,8,0,0,1,2.24-11.09A103.54,103.54,0,0,1,328,280a8,8,0,0,1,0,16,87.64,87.64,0,0,0-48.66,14.66A8,8,0,0,1,268.25,308.43Z"/><path d="M137.59,280a8,8,0,0,1-6.94-4,40,40,0,0,0-22.53-18.14A8,8,0,1,1,113,242.62,55.9,55.9,0,0,1,144.5,268,8,8,0,0,1,137.59,280Z"/></g></svg>