<svg xmlns="http://www.w3.org/2000/svg"  viewBox="0 0 128 128" width="256px" height="256px"><path fill="#FCF7CB" d="M64 29A41.5 42 0 1 0 64 113A41.5 42 0 1 0 64 29Z"/><path fill="#D8D5B2" d="M64,29.5c-2.2,0-4.4,0.2-6.5,0.5c19.9,3.2,35,20.5,35,41.5c0,21-15.2,38.3-35,41.5c2.1,0.3,4.3,0.5,6.5,0.5c22.9,0,41.5-18.8,41.5-42C105.5,48.3,86.9,29.5,64,29.5z"/><path fill="#454B54" d="M64,116.5c-24.6,0-44.5-20.2-44.5-45s20-45,44.5-45s44.5,20.2,44.5,45S88.6,116.5,64,116.5z M64,32.5c-21.3,0-38.5,17.5-38.5,39s17.3,39,38.5,39s38.5-17.5,38.5-39S85.3,32.5,64,32.5z"/><path fill="#D8D5B2" d="M56 71.6A7.5 7.5 0 1 0 56 86.6 7.5 7.5 0 1 0 56 71.6zM61 43.5A4 4 0 1 0 61 51.5 4 4 0 1 0 61 43.5zM91 61.5A6 6 0 1 0 91 73.5 6 6 0 1 0 91 61.5z"/></svg>