<svg xmlns="http://www.w3.org/2000/svg" viewBox="0 0 512 512"><defs><style>.cls-1{fill:#c1d1f7;}.cls-2{fill:#adbeee;}.cls-3{fill:#eaf2ff;}</style></defs><title>2. Cloudy Cloud</title><g id="_2._Cloudy_Cloud" data-name="2. Cloudy Cloud"><path class="cls-1" d="M504,192a64,64,0,0,1-64,64H280a64,64,0,0,1,0-128,80,80,0,0,1,160,0A64,64,0,0,1,504,192Z"/><path class="cls-2" d="M473.18,246.75A63.74,63.74,0,0,1,440,256H280a64,64,0,0,1,0-128,79.78,79.78,0,0,1,23.11-56.24,144.23,144.23,0,0,1,61.45,88.85A128.31,128.31,0,0,1,473.18,246.75Z"/><path class="cls-2" d="M440,232H280a64,64,0,0,1-62.86-52A64,64,0,0,0,280,256H440a64,64,0,0,0,62.86-76A64,64,0,0,1,440,232Z"/><path d="M440,264H280a72,72,0,0,1-7.68-143.59,87.06,87.06,0,0,1,8.48-30.82,8,8,0,1,1,14.4,7A71.17,71.17,0,0,0,288,128a8,8,0,0,1-8,8,56,56,0,0,0,0,112H440a56,56,0,0,0,0-112,8,8,0,0,1-8-8,72.08,72.08,0,0,0-72-72,71.36,71.36,0,0,0-43.2,14.4,8,8,0,0,1-9.61-12.8,88,88,0,0,1,140.49,62.81A72,72,0,0,1,440,264Z"/><path class="cls-3" d="M456,288A104,104,0,0,1,352,392H104A96,96,0,0,1,53.51,214.34,47.72,47.72,0,0,1,48,192c0-33.49,33.49-56.63,64.73-45a120,120,0,0,1,231,37.32A104,104,0,0,1,456,288Z"/><path class="cls-1" d="M319.63,392H104a96,96,0,0,1-88.71-59.24,87.75,87.75,0,0,1,34.9-18,104,104,0,0,1,203.62,0A88.19,88.19,0,0,1,319.63,392Z"/><path class="cls-1" d="M53.51,190.34a47.49,47.49,0,0,1-4-10.36,47.1,47.1,0,0,0-1.46,14Q50.72,192.07,53.51,190.34Z"/><path class="cls-1" d="M352,368H104A96,96,0,0,1,8.75,284,96,96,0,0,0,104,392H352A104,104,0,0,0,455.31,276,104,104,0,0,1,352,368Z"/><path d="M352,400H328a8,8,0,0,1,0-16h24a96,96,0,1,0-7.63-191.7,8,8,0,0,1-8.6-7.48C332.06,126,283,80,224,80a111.56,111.56,0,0,0-103.85,70,8,8,0,0,1-10.21,4.5A40.05,40.05,0,0,0,56,192a39.41,39.41,0,0,0,4.59,18.61,8,8,0,0,1-2.87,10.53A88,88,0,0,0,104,384H288a8,8,0,0,1,0,16H104A104,104,0,0,1,43.47,211.42C28.15,169.87,65,127.69,108.23,137.34A128,128,0,0,1,351,176a112,112,0,1,1,1,224Z"/><path d="M281.7,211a8,8,0,0,1,1.37-11.23,111.37,111.37,0,0,1,60.11-23.38,8,8,0,1,1,1.24,15.95,95.47,95.47,0,0,0-51.49,20A8,8,0,0,1,281.7,211Z"/><path d="M137.59,176a8,8,0,0,1-6.94-4,40.18,40.18,0,0,0-20.71-17.52,8,8,0,1,1,5.58-15,56.17,56.17,0,0,1,29,24.49A8,8,0,0,1,137.59,176Z"/><path class="cls-3" d="M296,400a64,64,0,0,1-64,64H72a64,64,0,0,1,0-128,80,80,0,0,1,160,0A64,64,0,0,1,296,400Z"/><path class="cls-1" d="M232,440H72A64,64,0,0,1,9.14,388,64,64,0,0,0,72,464H232a64,64,0,0,0,62.86-76A64,64,0,0,1,232,440Z"/><path d="M232,472H72a72,72,0,0,1-7.68-143.59,88,88,0,0,1,175.36,0A72,72,0,0,1,232,472ZM152,264a72.08,72.08,0,0,0-72,72,8,8,0,0,1-8,8,56,56,0,0,0,0,112H232a56,56,0,0,0,0-112,8,8,0,0,1-8-8A72.08,72.08,0,0,0,152,264Z"/><path d="M107,356.28A55.42,55.42,0,0,0,72,344a8,8,0,0,1,0-16,72.21,72.21,0,0,1,45,15.79,8,8,0,0,1-10,12.49Z"/></g></svg>