<svg xmlns="http://www.w3.org/2000/svg"  viewBox="0 0 128 128" width="256px" height="256px"><path fill="#fff" d="M60,97l-5,16.1l54-4.1l15-71l-7-34c-16.5,18.3-33.9,38.1-49.3,73.9"/><circle cx="33.8" cy="34" r="30" fill="#71c2ff"/><path fill="#444b54" d="M126.9,37.4l-7-34c-0.2-1.1-1.1-2-2.2-2.3c-1.1-0.3-2.3,0-3,0.9C98.9,19.6,80.9,39.6,65,76.7	c-0.7,1.5,0,3.3,1.6,3.9c1.5,0.7,3.3-0.1,3.9-1.6c1.7-4,3.5-7.8,5.2-11.4l32.8,29.1l-1.7,7.8l-58.7-28c-4.1-2-9.2-0.2-11.3,3.9	c-1,2.1-1.2,4.5-0.4,6.7c0.8,2.2,2.5,4,4.6,4.9l15.4,6.7c-2.4,7-4.7,14.5-6.9,22.2c-13.3-0.4-26.4-3.7-38.3-9.6	c-1.5-0.7-3.3-0.1-4,1.3c-0.7,1.5-0.1,3.3,1.3,4C22,123.4,37,126.9,51.9,127c0,0,0,0,0,0c0,0,0.1,0,0.1,0c0.1,0,0.2,0,0.4,0H106	c1.7,0,3-1.3,3-3s-1.3-3-3-3H55.9c2.3-8,4.7-15.7,7.2-22.9c0.6-1.6-0.3-3.3-1.8-3.8c0,0,0,0-0.1,0l-17.7-7.7	c-0.6-0.3-1.1-0.8-1.3-1.4c-0.2-0.6-0.2-1.3,0.1-2c0.6-1.2,2.1-1.7,3.3-1.1l52.3,25l-27.7,2.6c-1.6,0.2-2.9,1.6-2.7,3.3	c0.1,1.6,1.5,2.7,3,2.7c0.1,0,0.2,0,0.3,0l38.5-3.6c0.1,0,0.2,0,0.3-0.1c0.3-0.1,0.5-0.1,0.7-0.2c0.8-0.4,1.4-1.2,1.6-2.1l15-71	C127,38.2,127,37.8,126.9,37.4z M109.9,90L78.5,62.1C83,53.5,87.6,46,92.2,39.2l24,21.3L109.9,90z M117.6,53.7L95.7,34.3	c6.6-9.1,13.2-16.8,19.6-23.8l5.7,27.6L117.6,53.7z"/><circle cx="124" cy="124" r="3" fill="#444b54"/></svg>