<svg xmlns="http://www.w3.org/2000/svg"  viewBox="0 0 128 128" width="256px" height="256px"><circle cx="97.2" cy="47.2" r="30" fill="#adf9d2"/><path fill="#fff" d="M115.4,52.1C105,23.6,75.2,13.5,46.6,23.9s-45,37.3-34.6,65.8l3.2-5.1c3.3-5.2,9.6-7.6,15.6-6l6.6,1.8 l4.1-5.9c3.4-4.9,9.5-7.2,15.3-5.6l6.9,1.9l4.1-5.9c3.4-4.9,9.5-7.2,15.3-5.6l6.9,1.9l3.9-5.6c3.5-5.1,9.9-7.3,15.8-5.4 L115.4,52.1z"/><path fill="#444b54" d="M12.1,92.7c-0.1,0-0.2,0-0.3,0c-1.1-0.1-2.1-0.9-2.5-2c-8.5-23.2-0.1-47.6,21.4-62c1.4-0.9,3.2-0.6,4.2,0.8 s0.6,3.2-0.8,4.2C16.5,45.5,8.8,63.8,13.1,82.6c2-2.9,4.7-5,7.9-6.3c1.5-0.6,3.3,0.2,3.9,1.7c0.6,1.5-0.2,3.3-1.7,3.9 c-2.2,0.9-4.1,2.4-5.3,4.4l-3.2,5.1C14,92.2,13.1,92.7,12.1,92.7z"/><path fill="#444b54" d="M37.4,83.5c-0.1,0-0.3,0-0.4,0c-1.1-0.1-2.1-0.9-2.4-2c-4.4-12.1-6.1-24-5-34.4c0.2-1.6,1.7-2.8,3.3-2.7 c1.6,0.2,2.8,1.7,2.7,3.3c-0.9,7.9,0.1,16.8,2.8,26.1l0.6-0.9c4.1-6,11.6-8.7,18.6-6.8l1.3,0.4L48.4,37.6 c-0.6-1.6,0.2-3.3,1.8-3.8c1.6-0.6,3.3,0.2,3.8,1.8c0,0,12,33.1,12.5,34.3c0.1,0.4,0.2,0.8,0.2,1.2c-0.1,1.4-1.1,2.6-2.5,2.8 c-0.8,0.1-1.4,0-1.8-0.2L56,71.9c-4.5-1.3-9.4,0.5-12,4.4l-4.1,5.9C39.3,83,38.4,83.5,37.4,83.5z"/><path fill="#444b54" d="M118.2,51.1c-5.2-14.3-15.6-25.2-29.3-30.5c-12.3-4.8-26.5-4.9-40.5-0.5l-0.7-1.9c-0.6-1.6-2.3-2.4-3.8-1.8 c-1.6,0.6-2.4,2.3-1.8,3.8l1.7,4.7c0.3,0.7,0.8,1.4,1.6,1.7c0.7,0.3,1.5,0.4,2.3,0.1c13.5-4.9,27.3-5.1,39.1-0.5 C97,30.2,105,37.4,110,47.3c-7-2-14.5,0.7-18.6,6.7l-0.7,1c-4.2-9.8-9.8-18.1-16.2-24.3c-1.2-1.1-3.1-1.1-4.2,0.1 c-1.1,1.2-1.1,3.1,0.1,4.2c5.8,5.5,10.7,13,14.6,21.8l-1.1-0.3c-3.5-1-7.1-0.8-10.5,0.5c-1.6,0.6-2.3,2.3-1.8,3.9 c0.6,1.6,2.3,2.3,3.9,1.8c2.2-0.8,4.5-0.9,6.8-0.3l6.9,1.9c0.3,0.1,0.5,0.1,0.8,0.1c1,0,1.9-0.5,2.5-1.3l3.9-5.6 c2.8-4,7.7-5.7,12.4-4.3l5.7,1.8c1.1,0.3,2.3,0,3.1-0.8C118.4,53.3,118.6,52.1,118.2,51.1z"/><path fill="#444b54" d="M110,121H85.2L71,82.1c-0.6-1.6-2.3-2.4-3.8-1.8c-1.6,0.6-2.4,2.3-1.8,3.8L78.8,121H61.6 c-1.3,0-2.5-0.3-3.7-0.9l-2.6-1.3c-4-2-8.7-2-12.7,0c-2.3,1.1-5,1.1-7.3,0c-10.2-5.1-22.4-4.2-31.7,2.5l-0.4,0.3 c-1.3,1-1.7,2.8-0.7,4.2c0.6,0.8,1.5,1.3,2.4,1.3c0.6,0,1.2-0.2,1.7-0.6l0.4-0.3c7.5-5.4,17.3-6.1,25.6-2c4,2,8.7,2,12.7,0 c2.3-1.1,5-1.1,7.3,0l2.6,1.3c2,1,4.2,1.5,6.3,1.5H110c1.7,0,3-1.3,3-3S111.7,121,110,121z"/><circle cx="124" cy="124" r="3" fill="#444b54"/></svg>