<svg xmlns="http://www.w3.org/2000/svg" viewBox="0 0 512 512"><defs><style>.cls-1{fill:#eaf2ff;}.cls-2{fill:#c1d1f7;}.cls-3{fill:#f6f6f6;}.cls-4{fill:#a8edfd;}.cls-5{fill:#8bd4de;}.cls-6{fill:#6fc3e2;}.cls-7{fill:#62acc7;}</style></defs><title>28. Cold</title><g id="_28._Cold" data-name="28. Cold"><path class="cls-1" d="M216,282.48V72A64,64,0,0,0,88,72V282.48A119.9,119.9,0,0,0,32,382.75C31.33,448.52,84.52,503.07,150.29,504A120,120,0,0,0,216,282.48Z"/><path class="cls-2" d="M150.29,480C89,479.13,38.61,431.67,32.61,372c-7,70.43,48.3,131.06,117.68,132A120,120,0,0,0,271.4,372,120,120,0,0,1,150.29,480Z"/><path d="M152,512C80.67,512,23.28,453.42,24,382.67A127.58,127.58,0,0,1,83.73,275.72a8,8,0,0,1,8.54,13.53A111.65,111.65,0,0,0,40,382.83C39.38,444.37,88.9,495.13,150.4,496a111.42,111.42,0,0,0,80.24-32.24c51.4-50.69,42.13-135.94-18.91-174.5a8,8,0,0,1-3.73-6.77V72A56,56,0,0,0,96,72V248a8,8,0,0,1-16,0V72a72,72,0,0,1,144,0V278.16A128,128,0,0,1,152,512Z"/><path class="cls-3" d="M240,384a88,88,0,0,1-91.43,87.93c-47.29-1.79-84.94-41.3-84.57-88.63A88,88,0,0,1,120,302V72a32,32,0,0,1,64,0V302A88,88,0,0,1,240,384Z"/><path class="cls-4" d="M240,384a88,88,0,0,1-91.43,87.93c-47.29-1.79-84.94-41.3-84.57-88.63A88,88,0,0,1,120,302V232h64v70A88,88,0,0,1,240,384Z"/><path class="cls-5" d="M148.57,447.93c-43-1.62-78-34.44-83.74-76-7.11,52,32.57,98,83.74,100A88,88,0,0,0,239.18,372,88,88,0,0,1,148.57,447.93Z"/><path d="M82.62,450.21C36.49,401.83,52.89,323.78,112,296.71V72a40,40,0,0,1,80,0V296.71c60.9,27.89,75.72,109.14,26.57,156.46A95.79,95.79,0,0,1,82.62,450.21ZM152,48a24,24,0,0,0-24,24V302a8,8,0,0,1-5.09,7.45A79.64,79.64,0,0,0,72,383.36c-.33,43,33.85,78.95,76.88,80.58a80,80,0,0,0,32.21-154.49A8,8,0,0,1,176,302V72A24,24,0,0,0,152,48Z"/><circle class="cls-6" cx="152" cy="384" r="48"/><path class="cls-7" d="M152,408a48,48,0,0,1-46.49-36,48,48,0,1,0,93,0A48,48,0,0,1,152,408Z"/><path d="M152,440a56,56,0,1,1,56-56A56.06,56.06,0,0,1,152,440Zm0-96a40,40,0,1,0,40,40A40,40,0,0,0,152,344Z"/><path d="M184,240H120a8,8,0,0,1,0-16h64a8,8,0,0,1,0,16Z"/><path d="M56,112H8A8,8,0,0,1,8,96H56a8,8,0,0,1,0,16Z"/><path d="M56,144H24a8,8,0,0,1,0-16H56a8,8,0,0,1,0,16Z"/><path d="M56,176H8a8,8,0,0,1,0-16H56a8,8,0,0,1,0,16Z"/><path d="M56,208H24a8,8,0,0,1,0-16H56a8,8,0,0,1,0,16Z"/><path d="M56,240H8a8,8,0,0,1,0-16H56a8,8,0,0,1,0,16Z"/><path d="M56,272H24a8,8,0,0,1,0-16H56a8,8,0,0,1,0,16Z"/><circle class="cls-1" cx="376" cy="144" r="128"/><path class="cls-2" d="M376,248A128,128,0,0,1,248.56,132a128,128,0,1,0,254.88,0A128,128,0,0,1,376,248Z"/><path d="M376,280c-75,0-136-61-136-136S301,8,376,8,512,69,512,144a135.32,135.32,0,0,1-9.89,51,8,8,0,1,1-14.83-6,120.17,120.17,0,1,0-17.6,30,8,8,0,0,1,12.49,10A135.44,135.44,0,0,1,376,280Z"/><path d="M376,152a8,8,0,0,1-8-8V48a8,8,0,0,1,16,0v96A8,8,0,0,1,376,152Z"/><path d="M370.34,85.66l-16-16a8,8,0,0,1,11.32-11.32L376,68.69l10.34-10.35a8,8,0,1,1,11.32,11.32l-16,16A8,8,0,0,1,370.34,85.66Z"/><path d="M376,152a8,8,0,0,1-5.66-2.34L302.46,81.78a8,8,0,0,1,11.32-11.32l67.88,67.88A8,8,0,0,1,376,152Z"/><path d="M330.75,106.75H308.12a8,8,0,0,1,0-16h14.63V76.12a8,8,0,0,1,16,0V98.75A8,8,0,0,1,330.75,106.75Z"/><path d="M376,152H280a8,8,0,0,1,0-16h96a8,8,0,0,1,0,16Z"/><path d="M296,168a8,8,0,0,1-5.66-13.66L300.69,144l-10.35-10.34a8,8,0,0,1,11.32-11.32l16,16a8,8,0,0,1,0,11.32l-16,16A8,8,0,0,1,296,168Z"/><path d="M308.12,219.88a8,8,0,0,1-5.66-13.66l67.88-67.88a8,8,0,1,1,11.32,11.32l-67.88,67.88A8,8,0,0,1,308.12,219.88Z"/><path d="M330.75,219.88a8,8,0,0,1-8-8V197.25H308.12a8,8,0,0,1,0-16h22.63a8,8,0,0,1,8,8v22.63A8,8,0,0,1,330.75,219.88Z"/><path d="M376,248a8,8,0,0,1-8-8V144a8,8,0,0,1,16,0v96A8,8,0,0,1,376,248Z"/><path d="M392,232a8,8,0,0,1-5.66-2.34L376,219.31l-10.34,10.35a8,8,0,0,1-11.32-11.32l16-16a8,8,0,0,1,11.32,0l16,16A8,8,0,0,1,392,232Z"/><path d="M443.88,219.88a8,8,0,0,1-5.66-2.34l-67.88-67.88a8,8,0,0,1,11.32-11.32l67.88,67.88A8,8,0,0,1,443.88,219.88Z"/><path d="M421.25,219.88a8,8,0,0,1-8-8V189.25a8,8,0,0,1,8-8h22.63a8,8,0,0,1,0,16H429.25v14.63A8,8,0,0,1,421.25,219.88Z"/><path d="M472,152H376a8,8,0,0,1,0-16h96a8,8,0,0,1,0,16Z"/><path d="M456,168a8,8,0,0,1-5.66-2.34l-16-16a8,8,0,0,1,0-11.32l16-16a8,8,0,1,1,11.32,11.32L451.31,144l10.35,10.34A8,8,0,0,1,456,168Z"/><path d="M376,152a8,8,0,0,1-5.66-13.66l67.88-67.88a8,8,0,0,1,11.32,11.32l-67.88,67.88A8,8,0,0,1,376,152Z"/><path d="M443.88,106.75H421.25a8,8,0,0,1-8-8V76.12a8,8,0,0,1,16,0V90.75h14.63a8,8,0,0,1,0,16Z"/><circle class="cls-4" cx="376" cy="144" r="24"/><path class="cls-5" d="M376,152a24,24,0,0,1-22.63-16,24,24,0,1,0,45.26,0A24,24,0,0,1,376,152Z"/><path d="M376,176a32,32,0,1,1,32-32A32,32,0,0,1,376,176Zm0-48a16,16,0,1,0,16,16A16,16,0,0,0,376,128Z"/></g></svg>