<svg xmlns="http://www.w3.org/2000/svg"  viewBox="0 0 128 128" width="256px" height="256px"><path fill="#fff" d="M89,99v20c0,2.8-2.2,5-5,5h0c-2.8,0-5-2.2-5-5V99.1L89,99z"/><path fill="#71c2ff" d="M106.1,99H61.9c-5.9,0-10.5-5-10-10.8l6.3-75C58.7,8,63,4,68.2,4h31.6c5.2,0,9.5,4,10,9.2l6.3,75 C116.6,94,112,99,106.1,99z"/><path fill="#fff" d="M64.5,10.7c-1.7-0.1-3.1,1.1-3.2,2.7v0c0.1-1.7-1.1-3.1-2.7-3.2c-1.7-0.1-3.1,1.1-3.2,2.7l-1.6,19.2 c-0.1,1.7,1.1,3.1,2.7,3.2c0.1,0,0.2,0,0.3,0c1.5,0,2.9-1.2,3-2.7l-0.7,8.7c-0.1,1.7,1.1,3.1,2.7,3.2c0.1,0,0.2,0,0.3,0 c1.5,0,2.9-1.2,3-2.7l2.3-27.9C67.3,12.3,66.1,10.8,64.5,10.7z"/><path fill="#444b54" d="M119.1,87.9l-6.3-75C112.2,6.2,106.5,1,99.8,1H68.2c-6.7,0-12.4,5.2-13,11.9c-0.1,1.7,1.1,3.1,2.7,3.2 c1.7,0.1,3.1-1.1,3.2-2.7c0.3-3.6,3.4-6.4,7-6.4h31.6c3.6,0,6.7,2.8,7,6.4l6.3,75c0.2,2-0.5,3.9-1.8,5.3c-1.3,1.5-3.2,2.3-5.2,2.3 H61.9c-2,0-3.8-0.8-5.2-2.3c-1.3-1.5-2-3.4-1.8-5.3l4.7-55.8c0.1-1.7-1.1-3.1-2.7-3.2c-1.7-0.1-3.1,1.1-3.2,2.7l-4.7,55.8 c-0.3,3.6,0.9,7.2,3.4,9.9c2.5,2.7,5.9,4.2,9.6,4.2H86v17c0,1.1-0.9,2-2,2s-2-0.9-2-2v-8c0-1.7-1.3-3-3-3s-3,1.3-3,3v8 c0,4.4,3.6,8,8,8s8-3.6,8-8v-17h14.1c3.6,0,7.1-1.5,9.6-4.2C118.1,95.1,119.4,91.5,119.1,87.9z"/><path fill="#fff" d="M74,85L74,85c-2.2,0-4-1.8-4-4V24c0-2.2,1.8-4,4-4h0c2.2,0,4,1.8,4,4v57C78,83.2,76.2,85,74,85z"/><path fill="#fff" d="M94,85L94,85c-2.2,0-4-1.8-4-4V24c0-2.2,1.8-4,4-4h0c2.2,0,4,1.8,4,4v57C98,83.2,96.2,85,94,85z"/><path fill="#444b54" d="M37,31H26c-1.7,0-3-1.3-3-3s1.3-3,3-3h11c1.7,0,3,1.3,3,3S38.7,31,37,31z"/><path fill="#444b54" d="M33.3,54.5c-1,0-2-0.5-2.6-1.5c-0.8-1.4-0.3-3.3,1.1-4.1l4.3-2.5c1.4-0.8,3.3-0.3,4.1,1.1 c0.8,1.4,0.3,3.3-1.1,4.1l-4.3,2.5C34.3,54.4,33.8,54.5,33.3,54.5z"/><path fill="#444b54" d="M42,12.5c-0.5,0-1-0.1-1.5-0.4l-8.7-5c-1.4-0.8-1.9-2.7-1.1-4.1c0.8-1.4,2.7-1.9,4.1-1.1l8.7,5 c1.4,0.8,1.9,2.7,1.1,4.1C44,12,43,12.5,42,12.5z"/><circle cx="14" cy="28" r="3" fill="#444b54"/><circle cx="60.6" cy="56.7" r="3" fill="#fff"/></svg>