<svg xmlns="http://www.w3.org/2000/svg" viewBox="0 0 512 512"><defs><style>.cls-1{fill:#eaf2ff;}.cls-2{fill:#c1d1f7;}.cls-3{fill:#f6f6f6;}.cls-4{fill:#e9a648;}.cls-5{fill:#d08840;}.cls-6{fill:#ead590;}.cls-7{fill:#f1cb66;}.cls-8{fill:#e38343;}.cls-9{fill:#df6117;}</style></defs><title>27. Hot</title><g id="_27._Hot" data-name="27. Hot"><path class="cls-1" d="M216,282.48V72A64,64,0,0,0,88,72V282.48A119.9,119.9,0,0,0,32,382.75C31.33,448.52,84.52,503.07,150.29,504A120,120,0,0,0,216,282.48Z"/><path class="cls-2" d="M150.29,480C89,479.13,38.61,431.67,32.61,372c-7,70.43,48.3,131.06,117.68,132A120,120,0,0,0,271.4,372,120,120,0,0,1,150.29,480Z"/><path d="M152,512C80.67,512,23.28,453.42,24,382.67A127.58,127.58,0,0,1,83.73,275.72a8,8,0,0,1,8.54,13.53A111.65,111.65,0,0,0,40,382.83C39.38,444.37,88.9,495.13,150.4,496a111.42,111.42,0,0,0,80.24-32.24c51.4-50.69,42.13-135.94-18.91-174.5a8,8,0,0,1-3.73-6.77V72A56,56,0,0,0,96,72V248a8,8,0,0,1-16,0V72a72,72,0,0,1,144,0V278.16A128,128,0,0,1,152,512Z"/><path class="cls-3" d="M240,384a88,88,0,0,1-91.43,87.93c-47.29-1.79-84.94-41.3-84.57-88.63A88,88,0,0,1,120,302V72a32,32,0,0,1,64,0V302A88,88,0,0,1,240,384Z"/><path class="cls-4" d="M240,384a88,88,0,0,1-91.43,87.93c-47.29-1.79-84.94-41.3-84.57-88.63A88,88,0,0,1,120,302V104h64V302A88,88,0,0,1,240,384Z"/><path class="cls-5" d="M148.57,447.93c-43-1.62-78-34.44-83.74-76-7.11,52,32.57,98,83.74,100A88,88,0,0,0,239.18,372,88,88,0,0,1,148.57,447.93Z"/><path d="M82.62,450.21C36.49,401.83,52.89,323.78,112,296.71V72a40,40,0,0,1,80,0V296.71c60.9,27.89,75.72,109.14,26.57,156.46A95.79,95.79,0,0,1,82.62,450.21ZM152,48a24,24,0,0,0-24,24V302a8,8,0,0,1-5.09,7.45A79.64,79.64,0,0,0,72,383.36c-.33,43,33.85,78.95,76.88,80.58a80,80,0,0,0,32.21-154.49A8,8,0,0,1,176,302V72A24,24,0,0,0,152,48Z"/><path d="M184,112H120a8,8,0,0,1,0-16h64a8,8,0,0,1,0,16Z"/><path d="M56,112H8A8,8,0,0,1,8,96H56a8,8,0,0,1,0,16Z"/><path d="M56,144H24a8,8,0,0,1,0-16H56a8,8,0,0,1,0,16Z"/><path d="M56,176H8a8,8,0,0,1,0-16H56a8,8,0,0,1,0,16Z"/><path d="M56,208H24a8,8,0,0,1,0-16H56a8,8,0,0,1,0,16Z"/><path d="M56,240H8a8,8,0,0,1,0-16H56a8,8,0,0,1,0,16Z"/><path d="M56,272H24a8,8,0,0,1,0-16H56a8,8,0,0,1,0,16Z"/><circle class="cls-6" cx="376" cy="144" r="128"/><path class="cls-7" d="M376,248A128,128,0,0,1,248.56,132a128,128,0,1,0,254.88,0A128,128,0,0,1,376,248Z"/><path d="M376,280c-75,0-136-61-136-136S301,8,376,8c85,0,149.55,77.5,133.61,161.49a8,8,0,0,1-15.72-3C508,92.19,450.75,24,376,24A120,120,0,1,0,483.94,196.5a8,8,0,1,1,14.38,7A136,136,0,0,1,376,280Z"/><circle class="cls-4" cx="376" cy="144" r="48"/><path class="cls-5" d="M376,168a48,48,0,0,1-46.49-36,48,48,0,1,0,93,0A48,48,0,0,1,376,168Z"/><path d="M376,200a56,56,0,1,1,56-56A56.06,56.06,0,0,1,376,200Zm0-96a40,40,0,1,0,40,40A40,40,0,0,0,376,104Z"/><path d="M376,72a8,8,0,0,1-8-8V48a8,8,0,0,1,16,0V64A8,8,0,0,1,376,72Z"/><path d="M432.57,95.43a8,8,0,0,1-5.66-13.66l11.32-11.31a8,8,0,0,1,11.31,11.32L438.23,93.09A8,8,0,0,1,432.57,95.43Z"/><path d="M472,152H456a8,8,0,0,1,0-16h16a8,8,0,0,1,0,16Z"/><path d="M443.88,219.88a8,8,0,0,1-5.65-2.34l-11.32-11.31a8,8,0,0,1,11.32-11.32l11.31,11.31A8,8,0,0,1,443.88,219.88Z"/><path d="M376,248a8,8,0,0,1-8-8V224a8,8,0,0,1,16,0v16A8,8,0,0,1,376,248Z"/><path d="M308.12,219.88a8,8,0,0,1-5.66-13.66l11.31-11.31a8,8,0,0,1,11.32,11.32l-11.32,11.31A8,8,0,0,1,308.12,219.88Z"/><path d="M296,152H280a8,8,0,0,1,0-16h16a8,8,0,0,1,0,16Z"/><path d="M319.43,95.43a8,8,0,0,1-5.66-2.34L302.46,81.78a8,8,0,0,1,11.31-11.32l11.32,11.31A8,8,0,0,1,319.43,95.43Z"/><circle class="cls-8" cx="152" cy="384" r="48"/><path class="cls-9" d="M152,408a48,48,0,0,1-46.49-36,48,48,0,1,0,93,0A48,48,0,0,1,152,408Z"/><path d="M152,440a56,56,0,1,1,56-56A56.06,56.06,0,0,1,152,440Zm0-96a40,40,0,1,0,40,40A40,40,0,0,0,152,344Z"/></g></svg>