<?xml version="1.0" encoding="UTF-8"?>
<svg xmlns="http://www.w3.org/2000/svg" xmlns:xlink="http://www.w3.org/1999/xlink" viewBox="0 0 256 256" width="256px" height="256px">
<g id="surface19378842">
<path style=" stroke:none;fill-rule:nonzero;fill:rgb(20.392157%,59.607846%,85.882354%);fill-opacity:1;" d="M 171.800781 234 C 168 234 164.398438 233.601562 160.601562 232.601562 C 157.398438 231.800781 155.398438 228.601562 156.199219 225.398438 C 157 222.199219 160.199219 220.199219 163.398438 221 C 175 224 187.398438 220.601562 195.800781 212 C 207.199219 200.601562 209 182.601562 200 169 L 166.800781 119 C 165 116.199219 165.800781 112.601562 168.398438 110.601562 C 171.199219 108.800781 174.800781 109.601562 176.800781 112.199219 L 210 162.199219 C 222.199219 180.398438 219.800781 204.800781 204.199219 220.199219 C 195.800781 229.199219 184 234 171.800781 234 Z M 171.800781 234 "/>
<path style=" stroke:none;fill-rule:nonzero;fill:rgb(100%,100%,100%);fill-opacity:1;" d="M 130.398438 210.398438 C 107 233.800781 69 233.800781 45.601562 210.398438 C 25.398438 190.199219 22.199219 158.398438 38.199219 134.601562 L 88.199219 59.800781 L 138.199219 134.601562 C 153.800781 158.601562 150.601562 190.199219 130.398438 210.398438 Z M 130.398438 210.398438 "/>
<path style=" stroke:none;fill-rule:nonzero;fill:rgb(20.392157%,59.607846%,85.882354%);fill-opacity:1;" d="M 88 234 C 71 234 54.199219 227.601562 41.398438 214.800781 C 19.199219 192.398438 15.601562 157.398438 33 131.398438 L 83 56.601562 C 84.199219 55 86 54 88 54 C 90 54 91.800781 55 93 56.601562 L 143 131.398438 C 160.398438 157.398438 157 192.601562 134.800781 214.601562 C 121.800781 227.601562 105 234 88 234 Z M 88 70.601562 L 43 138 C 28.800781 159.398438 31.601562 188 49.800781 206.199219 C 70.800781 227.199219 105.199219 227.199219 126.199219 206.199219 C 144.398438 188 147.199219 159.398438 133 138 Z M 130.398438 210.398438 Z M 130.398438 210.398438 "/>
</g>
</svg>
