<svg xmlns="http://www.w3.org/2000/svg" viewBox="0 0 512 512"><defs><style>.cls-1{fill:#a8edfd;}.cls-2{fill:#8bd4de;}</style></defs><title>23. Rain Drop</title><g id="_23._Rain_Drop" data-name="23. Rain Drop"><path class="cls-1" d="M384,376c0-70.69-128-208-128-208S128,305.31,128,376a128,128,0,0,0,256,0Z"/><path class="cls-2" d="M256,480A128,128,0,0,1,128.77,366a69.6,69.6,0,0,0-.77,10,128,128,0,0,0,256,0,69.6,69.6,0,0,0-.77-10A128,128,0,0,1,256,480Z"/><path d="M256,512c-75,0-136-61-136-136,0-73,124.83-207.75,130.15-213.46a8,8,0,0,1,11.7,0c.61.66,61.25,66,99.07,129.36a8,8,0,0,1-13.74,8.2C317.07,249.63,272,197.71,256,179.9,219.7,220.37,136,321.68,136,376a120,120,0,0,0,240,0c0-11.81-4.12-26.84-12.24-44.69a8,8,0,0,1,14.57-6.62C387.4,344.63,392,361.89,392,376,392,451,331,512,256,512Z"/><path class="cls-1" d="M152,208c0-39.76-72-120-72-120S8,168.24,8,208a72,72,0,0,0,144,0Z"/><path class="cls-2" d="M80,256A72,72,0,0,1,9.32,197.71,45.8,45.8,0,0,0,8,208a72,72,0,0,0,144,0,45.8,45.8,0,0,0-1.32-10.29A72,72,0,0,1,80,256Z"/><path d="M80,288A80.09,80.09,0,0,1,0,208c0-11.51,4.78-25.85,14.6-43.84a8,8,0,0,1,14.05,7.68C18.19,191,16,202.06,16,208a64,64,0,0,0,128,0c0-27.39-41.78-81.87-64-107.82-7.47,8.78-20.87,25.07-33.46,43.13a8,8,0,1,1-13.12-9.15,596.88,596.88,0,0,1,40.61-51.5,8,8,0,0,1,11.9,0c.75.83,18.5,20.67,36.54,45.76C147.38,163,160,189.8,160,208A80.09,80.09,0,0,1,80,288Z"/><path class="cls-1" d="M504,160c0-48.6-88-152-88-152s-88,103.4-88,152a88,88,0,0,0,176,0Z"/><path class="cls-2" d="M416,224a88,88,0,0,1-86.92-74.18A53.73,53.73,0,0,0,328,160a88,88,0,0,0,176,0,53.73,53.73,0,0,0-1.08-10.18A88,88,0,0,1,416,224Z"/><path d="M416,256a96.11,96.11,0,0,1-96-96c0-21.81,15.28-55,45.41-98.76,22-31.9,44.27-58.16,44.5-58.43a8,8,0,0,1,12.18,0c.23.27,22.52,26.53,44.5,58.43C496.72,105,512,138.19,512,160A96.11,96.11,0,0,1,416,256Zm0-235.5c-27,33-80,104.92-80,139.5a80,80,0,0,0,160,0C496,125.4,443,53.44,416,20.5Z"/></g></svg>