<svg xmlns="http://www.w3.org/2000/svg"  viewBox="0 0 128 128" width="256px" height="256px"><path fill="#71c2ff" d="M114,122H96l0-106h18c5.5,0,10,4.5,10,10v86C124,117.5,119.5,122,114,122z"/><path fill="#fff" d="M96,119H16c-5.5,0-10-4.5-10-10V29c0-5.5,4.5-10,10-10h80c5.5,0,10,4.5,10,10v80C106,114.5,101.5,119,96,119z"/><path fill="#444b54" d="M51 97H36c-1.1 0-2.2-.6-2.7-1.7-.5-1-.4-2.2.3-3.1l7.5-10c4.4-5.9 6.9-13.3 6.9-20.7 0-2.5-2-4.5-4.5-4.5S39 59 39 61.5V68c0 1.7-1.3 3-3 3s-3-1.3-3-3v-6.5C33 55.7 37.7 51 43.5 51S54 55.7 54 61.5c0 8.7-2.9 17.3-8.1 24.3L42 91h9c1.7 0 3 1.3 3 3S52.7 97 51 97zM66 97c-.5 0-.9-.1-1.3-.3-1.5-.7-2.1-2.5-1.3-4l1.1-2.1c5.2-10.4 8.1-21.9 8.6-33.5H61c-1.7 0-3-1.3-3-3s1.3-3 3-3h15c1.7 0 3 1.3 3 3 0 13.5-3.2 27.1-9.3 39.2l-1.1 2.1C68.2 96.4 67.1 97 66 97z"/><g><path fill="#444b54" d="M96,16h-7v-2c0-4.4-3.6-8-8-8s-8,3.6-8,8v10c0,4.4,3.6,8,8,8c1.7,0,3-1.3,3-3s-1.3-3-3-3c-1.1,0-2-0.9-2-2V14c0-1.1,0.9-2,2-2s2,0.9,2,2v5c0,1.7,1.3,3,3,3h10c3.9,0,7,3.1,7,7v80c0,3.9-3.1,7-7,7H16c-3.9,0-7-3.1-7-7V29c0-3.9,3.1-7,7-7h5c1.7,0,3-1.3,3-3s-1.3-3-3-3h-5C8.8,16,3,21.8,3,29v80c0,7.2,5.8,13,13,13h80c7.2,0,13-5.8,13-13V29C109,21.8,103.2,16,96,16z"/><path fill="#444b54" d="M36,32c1.7,0,3-1.3,3-3s-1.3-3-3-3c-1.1,0-2-0.9-2-2V14c0-1.1,0.9-2,2-2s2,0.9,2,2v5c0,1.7,1.3,3,3,3h25c1.7,0,3-1.3,3-3s-1.3-3-3-3H44v-2c0-4.4-3.6-8-8-8s-8,3.6-8,8v10C28,28.4,31.6,32,36,32z"/></g></svg>