<svg xmlns="http://www.w3.org/2000/svg"  viewBox="0 0 128 128" width="256px" height="256px"><path fill="#fff" d="M121.8,80.9c-2.8-2.7-7.2-2.4-9.9,0.3C97,96.1,84.6,100.9,69.5,99c-6.2-0.8-9.3-2.6-14.9-5.1c-0.5-0.2-1.8-0.9-3.2-1.8c-4-2.3-4-8.1,0-10.4L66.4,73c3.7-2.1,5.3-6.8,3.4-10.6c-2.1-4.2-7.2-5.7-11.2-3.4L24,79H14l0-3l0,0v0H1l0,40h13v0l0,0l0-7c0,0,24,10,44.4,10c27.4,0,50.1-13.8,63.4-27.9C124.5,88.2,124.6,83.6,121.8,80.9z"/><path fill="#444b54" d="M123.9,78.7c-4-3.7-10.1-3.6-14.1,0.3c-13.9,13.9-25.5,18.8-39.9,17c-4.9-0.6-7.5-1.8-11.7-3.8c-0.7-0.3-1.5-0.7-2.3-1.1c-0.2-0.1-0.8-0.4-3-1.6c-1.4-0.8-1.5-2.1-1.5-2.6c0-0.5,0.1-1.8,1.5-2.6l15.1-8.7c5.1-3,7.2-9.3,4.6-14.5c-1.4-2.8-3.7-4.8-6.7-5.7c-2.9-0.9-6.1-0.5-8.7,1l-34.6,20c-1.4,0.8-1.9,2.7-1.1,4.1c0.8,1.4,2.7,1.9,4.1,1.1l34.6-20c1.2-0.7,2.6-0.9,4-0.5c1.3,0.4,2.4,1.3,3,2.6c1.2,2.3,0.2,5.3-2.2,6.7l-15.1,8.7c-2.8,1.6-4.5,4.5-4.5,7.8c0,3.3,1.7,6.2,4.5,7.8c2.3,1.3,3.1,1.7,3.5,1.9c0.8,0.4,1.6,0.7,2.3,1.1c4.5,2.1,7.7,3.6,13.5,4.3c16.3,2,29.7-3.5,44.9-18.7c1.6-1.6,4.2-1.7,5.7-0.2c1.5,1.5,1.5,4.2-0.1,5.9c-6,6.3-28.1,27-61.3,27c-16.4,0-35.5-6.8-41.4-9V76c0-1.7-1.3-3-3-3H4c-1.7,0-3,1.3-3,3s1.3,3,3,3h7v34H4c-1.7,0-3,1.3-3,3s1.3,3,3,3h10c1.7,0,3-1.3,3-3v-2.6c7.9,2.9,25.5,8.6,41.4,8.6c24,0,48.5-10.8,65.6-28.9C127.9,89.1,127.8,82.5,123.9,78.7z"/><path fill="#fff" d="M81.4,61.2L81.4,61.2L81.4,61.2c5.9-18,27.1-25.7,43.2-15.7l0,0l0,0C118.7,63.5,97.5,71.2,81.4,61.2z"/><path fill="#71c2ff" d="M98.3,68.6c-1.6,0-2.9-1.2-3-2.8c-0.1-1.7,1.2-3.1,2.8-3.1c10.1-0.5,18.8-6.6,22.7-15.8c-6.4-3.2-13.8-3.7-20.7-1.2c-7.6,2.8-13.4,8.8-15.9,16.5c-0.5,1.6-2.2,2.4-3.8,1.9c-1.6-0.5-2.4-2.2-1.9-3.8c3.1-9.5,10.2-16.9,19.6-20.3c9.4-3.4,19.6-2.3,28,2.9c1.2,0.7,1.7,2.2,1.3,3.5c-4.2,12.8-15.5,21.5-29,22.2C98.4,68.6,98.4,68.6,98.3,68.6z"/><path fill="#3f4a54" d="M81.4,64.2c-0.8,0-1.6-0.3-2.1-0.9c-0.6-0.6-0.9-1.3-0.9-2.1c0-0.8,0.3-1.6,0.9-2.1c0.7-0.7,1.7-1,2.7-0.8c0.2,0,0.4,0.1,0.6,0.2c0.2,0.1,0.3,0.2,0.5,0.3c0.2,0.1,0.3,0.2,0.5,0.4c0.6,0.6,0.9,1.3,0.9,2.1c0,0.8-0.3,1.6-0.9,2.1C83,63.9,82.2,64.2,81.4,64.2z"/><path fill="#fff" d="M101.7,5.6L101.7,5.6L101.7,5.6c12.9,20.7,3,48.1-20.2,55.6l0,0l0,0C68.6,40.5,78.5,13.2,101.7,5.6z"/><path fill="#fff" d="M84.3,56.6c-1.1,0-2.1-0.6-2.7-1.6c-0.8-1.5-0.2-3.3,1.3-4c6.4-3.3,11.3-8.8,13.8-15.7c0.6-1.6,2.3-2.4,3.8-1.8c1.6,0.6,2.4,2.3,1.8,3.8c-3,8.3-8.9,15-16.7,18.9C85.2,56.5,84.7,56.6,84.3,56.6z"/><path fill="#71c2ff" d="M81.5,64.3c-1,0-2-0.5-2.5-1.4c-6.7-10.7-8-23.5-3.7-35.4c4.3-11.8,13.6-20.8,25.6-24.7c1.3-0.4,2.7,0.1,3.5,1.3c6.7,10.7,8,23.5,3.7,35.4c-4.3,11.8-13.6,20.8-25.6,24.7C82.1,64.2,81.8,64.3,81.5,64.3z M100.4,9.3C91.3,13,84.3,20.2,80.9,29.5c-3.4,9.3-2.7,19.4,1.9,28c9.1-3.7,16.1-10.9,19.5-20.2C105.7,28,105,18,100.4,9.3z"/><g><path fill="#fff" d="M64.7,34.4c-1.6-4.8-5.3-8.5-10.2-10.2c-1.6-0.5-3.3,0.3-3.8,1.9c-0.5,1.4,0.2,3,1.5,3.7c-2.2,5.9,0.1,12.7,5.5,16c-0.6,1.3-0.2,3,1.1,3.8c0.5,0.3,1.1,0.5,1.6,0.5c1,0,1.9-0.5,2.5-1.4C65.7,44.4,66.3,39.2,64.7,34.4z"/><path fill="#71c2ff" d="M60.4,50c-0.3,0-0.7-0.1-1-0.2c-4.8-1.7-8.5-5.4-10.2-10.2c-1.6-4.8-1-10,1.8-14.3c0.8-1.2,2.2-1.7,3.5-1.2c5.1,1.8,9,5.9,10.4,11.1c0.4,1.6-0.5,3.2-2.1,3.7c-1.6,0.4-3.3-0.5-3.7-2.1c-0.7-2.5-2.2-4.5-4.3-5.9c-0.7,2.2-0.7,4.5,0,6.7c1,3.1,3.4,5.4,6.4,6.5c1.6,0.5,2.4,2.3,1.9,3.8C62.8,49.3,61.7,50,60.4,50z"/></g><g><path fill="#71c2ff" d="M76.2,86.6c-1,0-2-0.5-2.5-1.4c-0.9-1.4-0.5-3.3,1-4.1c3-1.9,5.1-4.8,5.9-8.3c0.4-1.6,2-2.6,3.6-2.2c1.6,0.4,2.6,2,2.2,3.6c-1.2,5-4.2,9.3-8.5,12C77.3,86.5,76.8,86.6,76.2,86.6z"/></g></svg>