<?xml version="1.0" encoding="UTF-8"?>
<svg xmlns="http://www.w3.org/2000/svg" xmlns:xlink="http://www.w3.org/1999/xlink" viewBox="0 0 256 256" width="256px" height="256px">
<g id="surface2499311">
<path style=" stroke:none;fill-rule:nonzero;fill:rgb(95.294118%,86.666667%,54.509807%);fill-opacity:1;" d="M 188 254 C 185.601562 254 183.398438 252.601562 182.398438 250.398438 L 162.398438 204.398438 C 161 201.398438 162.398438 197.800781 165.601562 196.601562 C 168.601562 195.199219 172.199219 196.601562 173.398438 199.800781 L 193.398438 245.800781 C 194.800781 248.800781 193.398438 252.398438 190.199219 253.601562 C 189.601562 253.800781 188.800781 254 188 254 Z M 248 254 C 246.398438 254 244.601562 253.398438 243.398438 252 L 203.398438 206 C 201.199219 203.398438 201.398438 199.800781 204 197.601562 C 206.601562 195.398438 210.199219 195.601562 212.398438 198.199219 L 252.398438 244.199219 C 254.601562 246.800781 254.398438 250.398438 251.800781 252.601562 C 250.800781 253.601562 249.398438 254 248 254 Z M 128 254 C 124.601562 254 122 251.398438 122 248 L 122 202 C 122 198.601562 124.601562 196 128 196 C 131.398438 196 134 198.601562 134 202 L 134 248 C 134 251.398438 131.398438 254 128 254 Z M 68 254 C 67.199219 254 66.398438 253.800781 65.601562 253.601562 C 62.601562 252.199219 61.199219 248.800781 62.398438 245.800781 L 82.398438 199.800781 C 83.800781 196.800781 87.199219 195.398438 90.199219 196.601562 C 93.199219 198 94.601562 201.398438 93.398438 204.398438 L 73.398438 250.398438 C 72.601562 252.601562 70.398438 254 68 254 Z M 8 254 C 6.601562 254 5.199219 253.601562 4 252.601562 C 1.601562 250.398438 1.199219 246.601562 3.398438 244.199219 L 43.398438 198.199219 C 45.601562 195.800781 49.398438 195.398438 51.800781 197.601562 C 54.199219 199.800781 54.601562 203.601562 52.398438 206 L 12.398438 252 C 11.398438 253.398438 9.601562 254 8 254 Z M 8 254 "/>
<path style=" stroke:none;fill-rule:nonzero;fill:rgb(100%,100%,100%);fill-opacity:1;" d="M 92 78 C 64.386719 78 42 100.386719 42 128 C 42 155.613281 64.386719 178 92 178 C 119.613281 178 142 155.613281 142 128 C 142 100.386719 119.613281 78 92 78 Z M 218 118 C 201.429688 118 188 131.429688 188 148 C 188 164.570312 201.429688 178 218 178 C 234.570312 178 248 164.570312 248 148 C 248 131.429688 234.570312 118 218 118 Z M 218 118 "/>
<path style=" stroke:none;fill-rule:nonzero;fill:rgb(100%,100%,100%);fill-opacity:1;" d="M 142 118 L 142 68 L 208 68 C 219 68 228 77 228 88 L 228 118 Z M 142 118 "/>
<path style=" stroke:none;fill-rule:nonzero;fill:rgb(95.294118%,86.666667%,54.509807%);fill-opacity:1;" d="M 92 110 C 82.058594 110 74 118.058594 74 128 C 74 137.941406 82.058594 146 92 146 C 101.941406 146 110 137.941406 110 128 C 110 118.058594 101.941406 110 92 110 Z M 92 110 "/>
<path style=" stroke:none;fill-rule:nonzero;fill:rgb(95.294118%,86.666667%,54.509807%);fill-opacity:1;" d="M 92 152 C 78.800781 152 68 141.199219 68 128 C 68 114.800781 78.800781 104 92 104 C 105.199219 104 116 114.800781 116 128 C 116 141.199219 105.199219 152 92 152 Z M 92 116 C 85.398438 116 80 121.398438 80 128 C 80 134.601562 85.398438 140 92 140 C 98.601562 140 104 134.601562 104 128 C 104 121.398438 98.601562 116 92 116 Z M 208 74 C 204.601562 74 202 71.398438 202 68 L 202 38 C 202 34.601562 204.601562 32 208 32 C 211.398438 32 214 34.601562 214 38 L 214 68 C 214 71.398438 211.398438 74 208 74 Z M 124 68 C 122.601562 68 121.398438 67.601562 120.199219 66.601562 C 117.601562 64.601562 117.199219 60.800781 119.199219 58.199219 L 127.199219 48.199219 C 129.199219 45.601562 133 45.199219 135.601562 47.199219 C 138.199219 49.199219 138.601562 53 136.601562 55.601562 L 128.601562 65.601562 C 127.601562 67.199219 125.800781 68 124 68 Z M 124 68 "/>
<path style=" stroke:none;fill-rule:nonzero;fill:rgb(95.294118%,86.666667%,54.509807%);fill-opacity:1;" d="M 218 112 C 198.199219 112 182 128.199219 182 148 C 182 157.199219 185.601562 165.601562 191.199219 172 L 126.601562 172 C 139.601562 161.800781 148 145.800781 148 128 C 148 126.601562 148 125.398438 147.800781 124 L 174 124 C 177.398438 124 180 121.398438 180 118 C 180 114.601562 177.398438 112 174 112 L 148 112 L 148 74 L 208 74 C 215.800781 74 222 80.199219 222 88 L 222 94 C 222 97.398438 224.601562 100 228 100 C 231.398438 100 234 97.398438 234 94 L 234 88 C 234 73.601562 222.398438 62 208 62 L 142 62 C 138.601562 62 136 64.601562 136 68 L 136 93.398438 C 125.800781 80.398438 109.800781 72 92 72 L 84 72 L 84 51.398438 C 84 48 81.398438 45.398438 78 45.398438 C 74.601562 45.398438 72 48 72 51.398438 L 72 75.601562 C 51 83.601562 36 104 36 127.800781 C 36 145.601562 44.398438 161.601562 57.398438 171.800781 L 38 171.800781 C 34.601562 171.800781 32 174.398438 32 177.800781 C 32 181.199219 34.601562 183.800781 38 183.800781 L 218 183.800781 C 237.800781 183.800781 254 167.601562 254 147.800781 C 254 128 237.800781 112 218 112 Z M 48 128 C 48 103.800781 67.800781 84 92 84 C 116.199219 84 136 103.800781 136 128 C 136 152.199219 116.199219 172 92 172 C 67.800781 172 48 152.199219 48 128 Z M 218 172 C 204.800781 172 194 161.199219 194 148 C 194 134.800781 204.800781 124 218 124 C 231.199219 124 242 134.800781 242 148 C 242 161.199219 231.199219 172 218 172 Z M 218 172 "/>
<path style=" stroke:none;fill-rule:nonzero;fill:rgb(95.294118%,86.666667%,54.509807%);fill-opacity:1;" d="M 218 140 C 213.582031 140 210 143.582031 210 148 C 210 152.417969 213.582031 156 218 156 C 222.417969 156 226 152.417969 226 148 C 226 143.582031 222.417969 140 218 140 Z M 8 172 C 4.6875 172 2 174.6875 2 178 C 2 181.3125 4.6875 184 8 184 C 11.3125 184 14 181.3125 14 178 C 14 174.6875 11.3125 172 8 172 Z M 8 172 "/>
</g>
</svg>
