<svg xmlns="http://www.w3.org/2000/svg"  viewBox="0 0 128 128" width="256px" height="256px"><path fill="#fff" d="M42 58L42 71 52 71 58 124 104 124 110 71 120 71 120 58z"/><path fill="#444b54" d="M120,55H85.2c0.8-3.9,1.2-7.9,1.1-11.9c0-1.7-1.5-3-3.1-2.9c-1.7,0-3,1.4-2.9,3.1c0.1,4-0.3,7.9-1.3,11.7H52 c-1.7,0-3,1.3-3,3s1.3,3,3,3h29.4c0,0,0,0,0,0c0,0,0,0,0,0H117v7h-7H52c0,0,0,0-0.1,0c-0.1,0-0.2,0-0.3,0c-1.6,0.2-2.8,1.7-2.6,3.3 l6,53c0.2,1.5,1.5,2.7,3,2.7h46c1.5,0,2.8-1.1,3-2.7l5.7-50.3h7.3c1.7,0,3-1.3,3-3V58C123,56.3,121.7,55,120,55z M101.3,121H60.7 l-5.3-47h51.3L101.3,121z"/><path fill="#71c2ff" d="M83.1 14.8c-3-6.5-8.5-11.5-15.2-14C66.3.2 64.6 1 64 2.6c-2.5 6.8-2.1 14.1.9 20.6 3 6.5 8.5 11.5 15.2 14 .3.1.7.2 1 .2 1.2 0 2.4-.8 2.8-2C86.5 28.6 86.1 21.3 83.1 14.8zM50.6 39.9c-.6.5-1 1.2-1.1 2-.1.8.2 1.6.7 2.2C53.5 48 58.1 50 62.8 50c3.7 0 7.5-1.3 10.6-3.8.6-.5 1-1.2 1.1-2 .1-.8-.2-1.6-.7-2.2C68 34.9 57.5 34 50.6 39.9z"/><path fill="#fff" d="M93.9,34.7L93.9,34.7c-0.5-0.1-0.9-0.6-0.8-1.1l0,0c2.4-13.6,15.3-22.6,28.9-20.2l0,0 c0.5,0.1,0.9,0.6,0.8,1.1l0,0C120.4,28,107.5,37.1,93.9,34.7z"/><path fill="#71c2ff" d="M98.3,38.1c-1.6,0-3.3-0.1-4.9-0.4c0,0,0,0,0,0c-1-0.2-1.9-0.8-2.5-1.6c-0.6-0.9-0.8-1.9-0.7-3 c1.3-7.3,5.4-13.8,11.5-18c6.1-4.3,13.5-5.9,20.9-4.6c1,0.2,1.9,0.8,2.5,1.6c0.6,0.9,0.8,1.9,0.7,3c-1.3,7.3-5.4,13.8-11.5,18 C109.5,36.3,104,38.1,98.3,38.1z M96.1,34.1C96.1,34.1,96.1,34.1,96.1,34.1C96.1,34.1,96.1,34.1,96.1,34.1z M96.6,32 c10.4,0.8,20-5.9,22.8-16C109,15.2,99.4,21.9,96.6,32z M119.9,13.9C119.9,13.9,119.9,13.9,119.9,13.9 C119.9,13.9,119.9,13.9,119.9,13.9z"/><path fill="#fff" d="M23,124L23,124c-3.9,0-7-3.1-7-7V93c0-3.9,3.1-7,7-7h0c3.9,0,7,3.1,7,7v24C30,120.9,26.9,124,23,124z"/><g><path fill="#fff" d="M40,33.7V71H6V33.7C6,21.5,12.5,10.2,23,4l0,0l0,0C33.5,10.2,40,21.5,40,33.7z"/></g><path fill="#444b54" d="M24.5,1.4c-0.9-0.6-2.1-0.6-3,0C10.1,8.1,3,20.5,3,33.7V71c0,1.7,1.3,3,3,3h14v9.5c-4.1,1.3-7,5.1-7,9.5v24 c0,5.5,4.5,10,10,10s10-4.5,10-10V93c0-4.5-2.9-8.3-7-9.5V74h14c1.7,0,3-1.3,3-3V33.7C43,20.5,35.9,8.1,24.5,1.4z M27,117 c0,2.2-1.8,4-4,4s-4-1.8-4-4V93c0-2.2,1.8-4,4-4s4,1.8,4,4V117z M37,68H26v-7c0-1.7-1.3-3-3-3s-3,1.3-3,3v7H9V33.7 c0-10.5,5.3-20.4,14-26.2c8.7,5.8,14,15.7,14,26.2V68z"/></svg>