<svg xmlns="http://www.w3.org/2000/svg"  viewBox="0 0 128 128" width="256px" height="256px"><path fill="#ffe4cf" d="M88,104c-2.2,0-4.3-0.9-5.8-2.5L80,99.1l-2.2,2.301c-1.5,1.6-3.6,2.5-5.8,2.5s-4.3-0.9-5.8-2.5 L64,99.1l-2.2,2.301c-1.5,1.6-3.6,2.5-5.8,2.5c-2.2,0-4.3-0.9-5.8-2.5L48,99.1l-2.2,2.301c-1.5,1.6-3.6,2.5-5.8,2.5 c-3.7,0-6.9-2.5-7.8-6.101l-0.4-1.7L30.1,95.7c-3.6-0.8-6.1-4-6.1-7.7c0-2.2,0.9-4.3,2.5-5.8l2.3-2.2l-2.3-2.2 C24.9,76.3,24,74.2,24,72c0-2.2,0.9-4.3,2.5-5.8l2.3-2.2l-2.3-2.2C24.9,60.3,24,58.2,24,56s0.9-4.3,2.5-5.8l2.3-2.2l-2.3-2.2 C24.9,44.3,24,42.2,24,40c0-3.7,2.5-6.9,6.1-7.8l1.7-0.4l0.4-1.7c0.9-3.6,4.1-6.1,7.8-6.1c2.2,0,4.3,0.9,5.8,2.5l2.2,2.3l2.2-2.3 c1.5-1.6,3.6-2.5,5.8-2.5c2.2,0,4.3,0.9,5.8,2.5l2.2,2.3l2.2-2.3c1.5-1.6,3.6-2.5,5.8-2.5s4.3,0.9,5.8,2.5l2.2,2.3l2.2-2.3 c1.5-1.6,3.6-2.5,5.8-2.5c3.7,0,6.9,2.5,7.8,6.1l0.4,1.7l1.7,0.4c3.6,0.9,6.1,4.1,6.1,7.8c0,2.2-0.9,4.3-2.5,5.8L99.1,48l2.301,2.2 c1.6,1.5,2.5,3.6,2.5,5.8s-0.9,4.3-2.5,5.8L99.1,64l2.301,2.2c1.6,1.5,2.5,3.6,2.5,5.8c0,2.2-0.9,4.3-2.5,5.8L99.1,80l2.301,2.2 c1.6,1.5,2.5,3.6,2.5,5.8c0,3.7-2.5,6.9-6.101,7.8l-1.7,0.4L95.7,97.9C94.9,101.5,91.7,104,88,104"/><path fill="#eac3b5" d="M97.8,32.2c-6.1,0-11,4.9-11,11v18.1C86.8,66.9,85,72.1,81.9,76.4C81.3,75.6,80.2,75,79,75 c-2.2,0-4,1.8-4,4c0,1.2,0.6,2.3,1.5,3.1C72.2,85.2,67,87,61.4,87H43.3c-6.1,0-11,4.9-11,11c0.137,0.548,0.328,1.071,0.565,1.564 c1.358,2.627,4.075,4.337,7.135,4.337c2.2,0,4.3-0.9,5.8-2.5L48,99.1l2.2,2.301c1.5,1.6,3.6,2.5,5.8,2.5c2.2,0,4.3-0.9,5.8-2.5 L64,99.1l2.2,2.301c1.5,1.6,3.6,2.5,5.8,2.5s4.3-0.9,5.8-2.5L80,99.1l2.102,2.293L82.3,101.6c0.041,0.044,0.082,0.087,0.124,0.129 C83.905,103.185,85.907,104,88,104c3.7,0,6.9-2.5,7.7-6.1l0.399-1.7l1.7-0.4C101.4,94.9,103.9,91.7,103.9,88c0-2.2-0.9-4.3-2.5-5.8 L99.1,80l2.301-2.2c1.6-1.5,2.5-3.6,2.5-5.8c0-2.2-0.9-4.3-2.5-5.8L99.1,64l2.301-2.2l0,0c1.6-1.5,2.5-3.6,2.5-5.8s-0.9-4.3-2.5-5.8 L99.1,48l2.301-2.2c1.6-1.5,2.5-3.6,2.5-5.8C103.9,36.3,101.4,33.1,97.8,32.2"/><path fill="#eac3b5" d="M64 60c-2.209 0-4 1.791-4 4s1.791 4 4 4 4-1.791 4-4S66.209 60 64 60M49 45c-2.209 0-4 1.791-4 4 0 2.209 1.791 4 4 4s4-1.791 4-4C53 46.791 51.209 45 49 45M79 45c-2.209 0-4 1.791-4 4 0 2.209 1.791 4 4 4 2.209 0 4-1.791 4-4C83 46.791 81.209 45 79 45M49 75c-2.209 0-4 1.791-4 4 0 2.209 1.791 4 4 4s4-1.791 4-4C53 76.791 51.209 75 49 75"/><path fill="#3f4a54" d="M32 51c-6.1 0-11-4.9-11-11 0-1.7 1.3-3 3-3s3 1.3 3 3c0 2.8 2.2 5 5 5 1.7 0 3 1.3 3 3S33.7 51 32 51zM96 51c-1.7 0-3-1.3-3-3s1.3-3 3-3c2.8 0 5-2.2 5-5s-2.2-5-5-5c-1.7 0-3-1.3-3-3s1.3-3 3-3c6.1 0 11 4.9 11 11S102.1 51 96 51z"/><path fill="#3f4a54" d="M32 67c-6.1 0-11-4.9-11-11s4.9-11 11-11c1.7 0 3 1.3 3 3s-1.3 3-3 3c-2.8 0-5 2.2-5 5s2.2 5 5 5c1.7 0 3 1.3 3 3C35 65.7 33.7 67 32 67zM96 67c-1.7 0-3-1.3-3-3s1.3-3 3-3c2.8 0 5-2.2 5-5s-2.2-5-5-5c-1.7 0-3-1.3-3-3s1.3-3 3-3c6.1 0 11 4.9 11 11S102.1 67 96 67z"/><path fill="#3f4a54" d="M32 83c-6.1 0-11-4.9-11-11s4.9-11 11-11c1.7 0 3 1.3 3 3 0 1.7-1.3 3-3 3-2.8 0-5 2.2-5 5s2.2 5 5 5c1.7 0 3 1.3 3 3S33.7 83 32 83zM96 83c-1.7 0-3-1.3-3-3s1.3-3 3-3c2.8 0 5-2.2 5-5s-2.2-5-5-5c-1.7 0-3-1.3-3-3s1.3-3 3-3c6.1 0 11 4.9 11 11S102.1 83 96 83z"/><path fill="#3f4a54" d="M32,99c-6.1,0-11-4.9-11-11s4.9-11,11-11c1.7,0,3,1.3,3,3s-1.3,3-3,3c-2.8,0-5,2.2-5,5s2.2,5,5,5 c1.7,0,3,1.3,3,3S33.7,99,32,99z"/><path fill="#3f4a54" d="M40,107c-6.1,0-11-4.9-11-11c0-1.7,1.3-3,3-3s3,1.3,3,3c0,2.8,2.2,5,5,5s5-2.2,5-5c0-1.7,1.3-3,3-3 s3,1.3,3,3C51,102.1,46.1,107,40,107z"/><path fill="#3f4a54" d="M56,107c-6.1,0-11-4.9-11-11c0-1.7,1.3-3,3-3s3,1.3,3,3c0,2.8,2.2,5,5,5s5-2.2,5-5c0-1.7,1.3-3,3-3 c1.7,0,3,1.3,3,3C67,102.1,62.1,107,56,107z"/><path fill="#3f4a54" d="M72 107c-6.1 0-11-4.9-11-11 0-1.7 1.3-3 3-3 1.7 0 3 1.3 3 3 0 2.8 2.2 5 5 5s5-2.2 5-5c0-1.7 1.3-3 3-3s3 1.3 3 3C83 102.1 78.1 107 72 107zM96 99c-1.7 0-3-1.3-3-3s1.3-3 3-3c2.8 0 5-2.2 5-5s-2.2-5-5-5c-1.7 0-3-1.3-3-3s1.3-3 3-3c6.1 0 11 4.9 11 11S102.1 99 96 99z"/><path fill="#3f4a54" d="M88 107c-6.1 0-11-4.9-11-11 0-1.7 1.3-3 3-3s3 1.3 3 3c0 2.8 2.2 5 5 5s5-2.2 5-5c0-1.7 1.3-3 3-3s3 1.3 3 3C99 102.1 94.1 107 88 107zM48 35c-1.7 0-3-1.3-3-3 0-2.8-2.2-5-5-5s-5 2.2-5 5c0 1.7-1.3 3-3 3s-3-1.3-3-3c0-6.1 4.9-11 11-11s11 4.9 11 11C51 33.7 49.7 35 48 35zM64 35c-1.7 0-3-1.3-3-3 0-2.8-2.2-5-5-5-1.7 0-3-1.3-3-3s1.3-3 3-3c6.1 0 11 4.9 11 11C67 33.7 65.7 35 64 35z"/><path fill="#3f4a54" d="M80,35c-1.7,0-3-1.3-3-3c0-2.8-2.2-5-5-5s-5,2.2-5,5c0,1.7-1.3,3-3,3s-3-1.3-3-3c0-6.1,4.9-11,11-11 s11,4.9,11,11C83,33.7,81.7,35,80,35z"/><path fill="#3f4a54" d="M96,35c-1.7,0-3-1.3-3-3c0-2.8-2.2-5-5-5s-5,2.2-5,5c0,1.7-1.3,3-3,3s-3-1.3-3-3c0-6.1,4.9-11,11-11 s11,4.9,11,11C99,33.7,97.7,35,96,35z"/></svg>